<?xml version="1.0" encoding="utf-8"?>
<!-- Generator: Adobe Illustrator 19.0.0, SVG Export Plug-In . SVG Version: 6.00 Build 0)  -->
<svg version="1.1" id="Layer_1" xmlns="http://www.w3.org/2000/svg" xmlns:xlink="http://www.w3.org/1999/xlink" x="0px" y="0px"
	 viewBox="-151.5 381.4 32.1 32.1" style="enable-background:new -151.5 381.4 32.1 32.1;" xml:space="preserve">
<style type="text/css">
	.st0{fill:#FFFFFF;}
</style>
<g>
	<path class="st0" d="M-135.6,394.3v0.7l2.5,0h0c0.3,0,0.5,0.2,0.5,0.5c0,0.1,0,0.3,0,0.4c-0.1,0.5-0.4,0.8-0.8,0.8l-2.1,0v8
		c0,0.4,0.2,0.7,0.6,0.8s0.6,0.4,0.6,0.7c0,0.3-0.2,0.5-0.5,0.5h-4c-0.4,0-0.5-0.2-0.5-0.5c0-0.3,0.2-0.5,0.6-0.7s0.6-0.4,0.6-0.8
		v-7.9c-0.1,0-0.4,0-1,0h-0.1c-0.3,0-0.5-0.2-0.5-0.5v0c0-0.2,0.1-0.4,0.4-0.5c0.1-0.1,0.5-0.2,0.9-0.5c0.1-0.1,0.3-0.1,0.4-0.2
		c0,0,0,0,0,0s0,0-0.1,0v-0.7c0-1,0.1-1.8,0.3-2.5c0.1-0.4,0.3-0.8,0.5-1.1c0.1-0.2,0.3-0.3,0.6-0.4l3-1.1c0.1,0,0.3-0.1,0.5-0.1
		h0.1c0.2,0,0.5,0.1,0.7,0.2c0.2,0.2,0.4,0.3,0.5,0.5c0.1,0.1,0.1,0.3,0.1,0.5c0,0.1,0,0.1,0,0.2c0,0.5-0.2,0.7-0.4,0.8h-0.1
		c-0.2,0-0.3-0.1-0.6-0.2c-0.3-0.2-0.6-0.3-0.9-0.3c-0.2,0-0.3,0-0.5,0.1c-0.6,0.2-0.9,0.7-0.9,1.4c0,0.3,0,0.6-0.1,0.9
		S-135.6,393.9-135.6,394.3z"/>
</g>
</svg>
