<svg id="Layer_1" data-name="Layer 1" xmlns="http://www.w3.org/2000/svg" viewBox="0 0 32.1 32.1"><defs><style>.cls-1{fill:#9c3335;}</style></defs><title>Artboard 1</title><path class="cls-1" d="M15.9,12.9v.7h2.5a.47.47,0,0,1,.5.5v.4c-.1.5-.4.8-.8.8H16v8a.76.76,0,0,0,.6.8.73.73,0,0,1,.6.7.47.47,0,0,1-.5.5h-4c-.4,0-.5-.2-.5-.5s.2-.5.6-.7.6-.4.6-.8V15.4H12.3a.47.47,0,0,1-.5-.5h0a.51.51,0,0,1,.4-.5c.1-.1.5-.2.9-.5.1-.1.3-.1.4-.2h-.1V13a9,9,0,0,1,.3-2.5,3.7,3.7,0,0,1,.5-1.1.92.92,0,0,1,.6-.4l3-1.1a4.33,4.33,0,0,1,.5-.1h.1a1.85,1.85,0,0,1,.7.2c.2.2.4.3.5.5a.75.75,0,0,1,.1.5v.2a.78.78,0,0,1-.4.8h-.1c-.2,0-.3-.1-.6-.2a1.61,1.61,0,0,0-.9-.3.9.9,0,0,0-.5.1,1.33,1.33,0,0,0-.9,1.4,2.77,2.77,0,0,1-.1.9A2.93,2.93,0,0,0,15.9,12.9Z"/></svg>