<svg xmlns="http://www.w3.org/2000/svg" viewBox="0 0 643.56 450.34"><defs><style>.cls-1{fill:#9c3335;}</style></defs><title>hands-bg</title><g id="Layer_2" data-name="Layer 2"><g id="Layer_1-2" data-name="Layer 1"><path class="cls-1" d="M301.28,24.34c-4.66-11.92-13.5-21.9-26.61-23.92s-26,3.49-36.5,10.92l-.45.32a47.75,47.75,0,0,0-17.63,24.66c-2.47,7.72-4.44,18-1.78,26,5.4,16.11,26.77,20.28,41.56,17.64,5.19-.93,10.12-2.89,15-4.84,12.45-5,25.29-11.68,29.26-25.59C306.56,41,304.64,32.28,301.28,24.34Z"/><path class="cls-1" d="M633,230c-8.95-19.8-28.29-44.61-53-41.22-18.62,2.57-17.4,20.92-11.76,34.39,9.37,22.37,24.87,43.54,17.39,69.13l-.85,2.92c-3.19,11-3.6,12.46-22,30.9l-6.08,5.5c-8.52,8.26-21.85,19.93-34.74,31.21C502.11,380.2,483.38,396.6,479.2,403c-4,6.1-2.9,14.26,2.43,17.83l1.85,1.06a16.7,16.7,0,0,0,7.57,1.86c7.77,0,20.28-5,58.57-29.82,23.74-15.39,46.92-31.78,50.1-34.13,24.47-18.11,42.62-44.7,43.77-75.68A124.54,124.54,0,0,0,633,230Zm-51.16-38.81a13.57,13.57,0,0,0-2.53.21,12,12,0,0,1,1.64-.23Zm-4.24.46a9,9,0,0,0-1.67.72A9,9,0,0,1,577.63,191.65Zm-3,1.38a9,9,0,0,0-1.32,1.15A9,9,0,0,1,574.62,193Zm-2.33,2.09a16.77,16.77,0,0,0-1,1.48A16.77,16.77,0,0,1,572.29,195.12Zm-1.72,2.6a16,16,0,0,0-.75,1.7A15.13,15.13,0,0,1,570.57,197.72Zm-2.64,8.45c-.15.84-.26,1.61-.35,2.27C567.67,207.78,567.78,207,567.93,206.17Zm1.39-5.59c-.22.63-.38,1.24-.54,1.86C568.94,201.82,569.1,201.21,569.32,200.58Zm-.83,2.89c-.18.72-.3,1.38-.43,2C568.19,204.85,568.31,204.19,568.49,203.47ZM488,419.58l-.13,0Zm2.9.37c.1,0,.2,0,.31,0h-.14ZM540,395.64c2.43-1.55,4.93-3.15,7.61-4.89C544.9,392.49,542.4,394.09,540,395.64Zm-48.34,24.3c.42,0,.86-.05,1.33-.11C492.49,419.89,492.05,419.92,491.63,419.94Zm2-.19c.48-.08,1-.18,1.54-.3C494.59,419.57,494.07,419.67,493.59,419.75Zm2.1-.43c.73-.18,1.52-.4,2.35-.68C497.21,418.92,496.42,419.14,495.69,419.32Zm3-.9c.67-.23,1.37-.49,2.12-.78C500,417.93,499.33,418.19,498.66,418.42Zm3.12-1.18c.71-.3,1.48-.63,2.27-1C503.26,416.61,502.49,416.94,501.78,417.24Zm3.28-1.43c1.13-.53,2.31-1.1,3.59-1.74C507.37,414.71,506.19,415.28,505.06,415.81Zm4.47-2.19c1-.54,2.12-1.11,3.27-1.73C511.65,412.51,510.57,413.08,509.53,413.62Zm4.87-2.6c1.06-.58,2.15-1.19,3.28-1.84C516.56,409.83,515.46,410.44,514.4,411Zm4.91-2.76c1.69-1,3.44-2,5.3-3.11C522.75,406.27,521,407.29,519.31,408.26Zm6.29-3.7c1.61-1,3.31-2,5.08-3.09C528.91,402.56,527.21,403.59,525.6,404.56Zm7.3-4.48,4.84-3Z"/><path class="cls-1" d="M444.79,178.74a247.33,247.33,0,0,0,13.53,24c5,7.84,10.49,15.4,16.19,22.76s11.67,14.47,17.94,21.32,12.64,13.4,19.22,19.84q6,5.93,12.45,11.46c2.41,2.1,4.46,4.91,7.54,6.08s6.28,0,9.27-.91a27.69,27.69,0,0,0,7.2-3.15c4-2.59,8.26-6.41,8.82-11.43a11,11,0,0,0-2-7.52c-8.79-12.42-18.72-18.3-26.76-26.31A236.58,236.58,0,0,1,495.5,194a284.58,284.58,0,0,1-36.67-91.28A235.13,235.13,0,0,1,453.57,54c0-7,5.89-34.6-1-38.86-3-1.83-7.43-4-11.82-4-34.38,0-14.93,103.7-11.5,122A179,179,0,0,0,444.79,178.74Z"/><path class="cls-1" d="M483,343.59l.88.77.39.05.48.29a8.71,8.71,0,0,0,4.17,1.6l.68,0a22,22,0,0,0,9.75-2.51A18.49,18.49,0,0,0,505.1,340c2.92-3.25,7.23-7.92,7.08-12.58-.4-12.43-14.49-22.69-22.66-30.3-14.34-13.35-28.22-26.31-39.47-42.5-23.47-33.8-39-72-50.8-111.25a594.65,594.65,0,0,1-14.94-64.17c-3.63-20-6-39.5-6.21-59.84C378,8.7,372.47,2.54,361.53,2.54c-10.38,0-16,12.86-17.14,20.92-3,22.17.37,61.48,7.95,90.77,6.15,23.71,11.18,47.85,19.3,71a241,241,0,0,0,16.61,37.55l.57,1c3.56,6.36,6.52,13.06,10.15,19.4q5.59,9.74,11.93,19a272.11,272.11,0,0,0,33.71,41.14c3.71,3.67,7.52,7.23,11.19,10.94,5.26,5.31,9.68,11.3,14.6,16.91a155.16,155.16,0,0,0,11.52,11.42C482.31,343,482.69,343.33,483,343.59Z"/><path class="cls-1" d="M438.49,346.9a42.51,42.51,0,0,1-5.33-4.35c-20.23-16.71-36.78-31.32-53.33-50.83-24.41-28.75-40.17-65.75-50.71-102a206.7,206.7,0,0,1-7.4-39.54C320.47,137.08,318.2,120,301.48,120c-9.57,0-17.34,12.65-17.65,20.42-.4,10.27,4.16,32.92,7.69,48,7.8,33.45,17.25,63.13,35.62,92.48,19,30.31,42.89,56.2,69.92,80.11,7.83,6.93,15.41,13.92,23.57,19.73,10.84,7.7,19.39,12.54,28.23,14.06l1.87-.16c3.62-.37,5.45-.75,8.35-2.94,3.13-2.37,4.58-5.67,6.65-8.88,1.48-2.31,3.1-4.84,2.66-7.7C466.47,362.65,450.08,353.7,438.49,346.9Z"/><path class="cls-1" d="M412.58,414.41c-6.31-1.8-12.45-5.72-18.56-8.15-22.79-9.09-41.29-25.9-57.85-43-19.17-19.79-32.38-46.1-42.75-71.6a119.89,119.89,0,0,1-6-17.94c-.93-4.06-1.58-8.2-6.09-9.53-4.15-1.22-10.5.89-13.08,4.23-4.22,5.45-4.28,16.57-3.58,23.1,3,27.71,18.77,55.63,34.2,78.15,16.85,24.62,42.57,44.45,67.71,57.29,8,4.07,15.8,8.73,24.14,11.94,7.78,3,15.85,5.66,23.71,8.29l2.72,1c1.91.7,3.64,1.32,5.41,1.78l.52.15.43.13.66.08,1.16,0h2.23l.76-.37a17.63,17.63,0,0,0,8.9-9.89c1.42-3.87,3.53-10.68.64-14.32-2.49-3.11-6.29-5-9.92-6.41C422.92,417.4,417.77,415.89,412.58,414.41Z"/><path class="cls-1" d="M60.1,317.35C49.91,308,44.87,299,44.56,289.84c-.4-12,7.08-25.65,23.54-42.93a13.4,13.4,0,0,0,5.34-9.16l.1-.83c1.13-10.57-2.08-16.64-9.56-18-14.65-2.77-27.61,5.3-36.94,15.71-9.17,10.26-19,23-24,35.85-3,7.78-4.32,18.7-1.37,26.77C6.17,309.52,16.47,320.86,26,329.59c1.34,1.23,16.93,16.16,30.53,31l.76.83c25.41,27.73,28.07,30.62,34.17,30.3a15.68,15.68,0,0,0,1.92-.26l.27-.06.27-.09.63-.22c2.52-.9,3.75-1.8,4.28-4.73.07-.37.16-.86.32-1.52,2.16-8.5-.25-23.78-38.4-66.81Zm-6.7-95.51c-.49,0-1,.06-1.44.09.23,0,.42-.08.67-.09S53.15,221.85,53.4,221.84ZM63.84,363c-1.44-1.56-2.93-3.2-4.54-4.95C60.91,359.79,62.4,361.43,63.84,363Zm16.49,17.63,1.24,1.23ZM64.22,363.41l3.63,3.95Zm4.31,4.69,2.79,3Zm3.75,4,2.11,2.27Zm3.12,3.34c.58.62,1.14,1.22,1.68,1.78Zm2.66,2.81,1.41,1.45Zm4.23,4.25c.4.39.77.73,1.12,1.06ZM84,384.14l1.1.95ZM91,388l.44,0-.19,0A2.08,2.08,0,0,1,91,388Zm-5.56-2.56c.46.37.89.7,1.28,1C86.34,386.1,85.91,385.77,85.45,385.4Zm1.38,1c.36.24.7.46,1,.64C87.53,386.9,87.19,386.68,86.83,386.44Zm1.36.8a6.28,6.28,0,0,0,.65.31A6.28,6.28,0,0,1,88.19,387.24Zm1,.44a5.7,5.7,0,0,0,.55.16A5.7,5.7,0,0,1,89.22,387.68Zm.91.22.53.06Z"/><path class="cls-1" d="M216,198.37c6.24-12.28,14.52-28.13,8.48-38.88-1.45-2.6-4.22-3.82-7-4.32-5.46-.95-7.33,3.44-8.81,7.8a171.63,171.63,0,0,1-14.2,31.38c-7.12,12.26-15.2,24.28-25.24,34.35-8.46,8.49-41.39,25.3-63.16,33.81-6,2.33-18.41,4.74-19.3,12.86-.35,3.21,3.2,9.12,5.36,11.32a13.06,13.06,0,0,0,9.91,3.67c6.92-.2,13.81-2.94,20-5.66,6.5-2.88,12.33-5.53,18.13-8.13,12.94-5.8,25.74-12.34,37.08-20.88,14.16-10.68,26.91-29.58,34.54-48.35C212.8,204.72,214.34,201.67,216,198.37ZM222,164.51a7.14,7.14,0,0,0-.73-3.18A7.14,7.14,0,0,1,222,164.51ZM90.47,275.78c.15-1.32,3.88-5.58,18.63-7.75-14.75,2.17-18.48,6.43-18.63,7.75-.33,3,5.31,9.55,8.58,11.9C95.78,285.33,90.13,278.78,90.47,275.78Z"/><path class="cls-1" d="M269.14,166.25c-4.9,1.33-7,6.65-8.92,10.83-2.55,5.6-5.18,11.16-8,16.64-15.15,29.7-35.44,57.9-60,80.59A185.07,185.07,0,0,1,170.19,292a106.11,106.11,0,0,1-23.44,11.52c-13,4.66-29.47,7.07-40.92,16.56a9.88,9.88,0,0,0-3.76,6.32,12.15,12.15,0,0,0,.43,4.19c3.12,12.83,11.62,16.2,23.24,11.05,24.29-10.75,49-17.46,70.1-34.36a172.9,172.9,0,0,0,16.38-14.95,218.57,218.57,0,0,0,14.9-17.27c9.33-11.94,18.18-24.24,26.87-36.66,8.1-11.6,17.13-23.13,23.48-35.83,3.28-6.58,5.56-13.82,5-21.26a30.22,30.22,0,0,0-1.61-7.59C279.13,168.92,274.06,164.9,269.14,166.25Zm-.64,3.38h.29a1.79,1.79,0,0,0-1.07.24A1.51,1.51,0,0,1,268.5,169.63Z"/><path class="cls-1" d="M268.35,271.84a8.25,8.25,0,0,0-3.24,2.08c-4,4.14-4.93,10.3-7.82,15.13a137.12,137.12,0,0,1-12.54,17,176.44,176.44,0,0,1-31.88,30.08c-17.85,13-38.78,21.93-60.76,24.63-6.89.85-13.84,1.22-20.76,1.82-4.76.4-11.32,1.86-13.53,6.68-2.49,5.44,1.76,14.13,6.8,16.74,3.85,2,8.48,1.29,12.75.53,6.09-1.08,12.25-1.85,18.27-3.27,32.49-7.65,42.41-10.62,62.59-21.51,18.11-9.76,32.71-21.57,44.65-38.1,3.34-4.62,6.49-9.36,9.6-14.13,5.28-8.14,10.49-17.17,9.8-26.85a13,13,0,0,0-1.65-5.88C278.13,272.67,272.74,270.34,268.35,271.84ZM121,370.32c.78-.95,4-3.72,15.46-4.33h0C125.05,366.6,121.82,369.37,121,370.32Z"/><path class="cls-1" d="M261.85,362.22c-5.18-2.15-9.51,3.92-12.09,7.41-5.38,7.24-12,12.78-19.2,18.18a117.91,117.91,0,0,1-24.28,13.68,78.51,78.51,0,0,1-30.59,6.8A121.3,121.3,0,0,1,145,405c-3.6-.84-7.37-1.68-11.1-1.42-2.44.18-7.41,1.47-8,4.45-1,5-1.31,11.47,4.83,14.82a15.36,15.36,0,0,0,5.65,1.4c18.5,2.17,37.32,5.55,56,3a81.13,81.13,0,0,0,14.74-3.37,113.18,113.18,0,0,0,39.82-23.64c3.61-3.29,7.06-6.77,10.38-10.36,4.44-4.82,9.53-11.75,9.39-18.64a13.21,13.21,0,0,0-.54-3.37C265.49,365.67,264.07,363.14,261.85,362.22ZM132.41,407.46c.28,0,.67,0,1,0-.37,0-.76,0-1.06,0Zm-2.74,6.41-.31.26.31-.27Zm-.23-4.28a5.3,5.3,0,0,1,0-1.19,6.23,6.23,0,0,0,0,1.19l.23,4.27Zm2.16,9.55h0l.31.14Zm50.14,5.62c-.34,0-.68,0-1,0,2.34-.1,4.64-.35,6.94-.6C185.69,424.36,183.74,424.65,181.74,424.76Z"/></g></g></svg>