<svg id="Layer_1" data-name="Layer 1" xmlns="http://www.w3.org/2000/svg" viewBox="0 0 32.1 32.1"><defs><style>.cls-1{fill:#9c3335;}</style></defs><title>Artboard 1</title><path class="cls-1" d="M21.9,3.1H10.3a7.17,7.17,0,0,0-7.2,7.2V21.9a7.17,7.17,0,0,0,7.2,7.2H21.9a7.17,7.17,0,0,0,7.2-7.2V10.3A7.3,7.3,0,0,0,21.9,3.1Zm4.8,18.8a4.91,4.91,0,0,1-4.9,4.9H10.1a4.91,4.91,0,0,1-4.9-4.9V10.3a4.91,4.91,0,0,1,4.9-4.9H21.7a4.91,4.91,0,0,1,4.9,4.9l.1,11.6Z"/><path class="cls-1" d="M16,9.4a6.7,6.7,0,1,0,6.7,6.7A6.7,6.7,0,0,0,16,9.4Zm0,11.1a4.4,4.4,0,1,1,4.4-4.4A4.37,4.37,0,0,1,16,20.5Z"/><path class="cls-1" d="M23,7.4a1.71,1.71,0,0,0-1.7,1.7,1.7,1.7,0,0,0,2.9,1.2,1.85,1.85,0,0,0,.5-1.2,1.85,1.85,0,0,0-.5-1.2A1.66,1.66,0,0,0,23,7.4Z"/></svg>