<?xml version="1.0" encoding="utf-8"?>
<!-- Generator: Adobe Illustrator 19.0.0, SVG Export Plug-In . SVG Version: 6.00 Build 0)  -->
<svg version="1.1" id="Layer_1" xmlns="http://www.w3.org/2000/svg" xmlns:xlink="http://www.w3.org/1999/xlink" x="0px" y="0px"
	 viewBox="-151.5 381.4 32.1 32.1" style="enable-background:new -151.5 381.4 32.1 32.1;" xml:space="preserve">
<style type="text/css">
	.st0{fill:#FFFFFF;}
</style>
<g>
	<path class="st0" d="M-129.6,384.5h-11.6c-4,0-7.2,3.2-7.2,7.2v11.6c0,4,3.2,7.2,7.2,7.2h11.6c4,0,7.2-3.2,7.2-7.2v-11.6
		C-122.5,387.7-125.7,384.5-129.6,384.5z M-124.8,403.3c0,2.7-2.2,4.9-4.9,4.9h-11.7c-2.7,0-4.9-2.2-4.9-4.9v-11.6
		c0-2.7,2.2-4.9,4.9-4.9h11.6c2.7,0,4.9,2.2,4.9,4.9L-124.8,403.3L-124.8,403.3z"/>
	<path class="st0" d="M-135.5,390.8c-3.7,0-6.7,3-6.7,6.7c0,3.7,3,6.7,6.7,6.7s6.7-3,6.7-6.7C-128.8,393.8-131.8,390.8-135.5,390.8z
		 M-135.5,401.9c-2.4,0-4.4-2-4.4-4.4c0-2.4,2-4.4,4.4-4.4c2.4,0,4.4,2,4.4,4.4C-131.1,399.9-133,401.9-135.5,401.9z"/>
	<path class="st0" d="M-128.5,388.8c-0.4,0-0.9,0.2-1.2,0.5c-0.3,0.3-0.5,0.8-0.5,1.2c0,0.4,0.2,0.9,0.5,1.2
		c0.3,0.3,0.8,0.5,1.2,0.5c0.4,0,0.9-0.2,1.2-0.5c0.3-0.3,0.5-0.8,0.5-1.2c0-0.4-0.2-0.9-0.5-1.2C-127.6,389-128,388.8-128.5,388.8z
		"/>
</g>
</svg>
