<svg xmlns="http://www.w3.org/2000/svg" viewBox="0 0 114.08 99.09"><defs><style>.cls-1{fill:#9c3435;}.cls-2{fill:#fff;}</style></defs><title>logo-icon</title><g id="Layer_2" data-name="Layer 2"><g id="Layer_1-2" data-name="Layer 1"><path class="cls-1" d="M112.49,38.26C110.58,29,106.92,20.1,100.1,13.14,77.26-10.2,39.54.68,19.07,21.43A66.36,66.36,0,0,0,5.84,40.37C2,48.74-1.08,58.89.36,68.16,3.69,89.47,29.57,99.25,48.65,99.09c6.69-.06,13.29-1.47,19.82-2.87,12.2-2.61,25.28-6.68,34.57-15.59s12.08-21.8,10.72-34.24C113.46,43.67,113.05,40.94,112.49,38.26Z"/><path class="cls-2" d="M55.09,23.61a4.7,4.7,0,0,0-3.55-3.19,6.86,6.86,0,0,0-4.87,1.46l-.06,0a6.45,6.45,0,0,0-2.35,3.29A5.93,5.93,0,0,0,44,28.67c.72,2.15,3.57,2.7,5.54,2.35a10.13,10.13,0,0,0,2-.64c1.66-.67,3.37-1.56,3.9-3.41A5.07,5.07,0,0,0,55.09,23.61Z"/><path class="cls-2" d="M99.32,51c-1.19-2.64-3.77-6-7.06-5.49-2.49.34-2.32,2.78-1.57,4.58,1.25,3,3.31,5.81,2.32,9.22l-.12.39c-.42,1.47-.48,1.66-2.93,4.12l-.82.73c-1.13,1.1-2.91,2.66-4.63,4.16a54.61,54.61,0,0,0-5.7,5.35,1.74,1.74,0,0,0,.33,2.38l.24.14a2.28,2.28,0,0,0,1,.25c1,0,2.71-.66,7.81-4,3.17-2,6.26-4.23,6.68-4.55a13.45,13.45,0,0,0,5.84-10.09A16.56,16.56,0,0,0,99.32,51ZM92.5,45.86a1.27,1.27,0,0,0-.34,0,1.7,1.7,0,0,1,.22,0Zm-.56.06a1.57,1.57,0,0,0-.23.09A1.57,1.57,0,0,1,91.94,45.92Zm-.4.18a1.37,1.37,0,0,0-.18.16A1.37,1.37,0,0,1,91.54,46.1Zm-.32.28a1.37,1.37,0,0,0-.13.2A1.37,1.37,0,0,1,91.22,46.38Zm-.23.35a2.14,2.14,0,0,1-.1.22A2.14,2.14,0,0,0,91,46.73Zm-.35,1.12c0,.12,0,.22,0,.31C90.61,48.07,90.62,48,90.64,47.85Zm.19-.74a1.82,1.82,0,0,0-.07.25A1.82,1.82,0,0,1,90.83,47.11Zm-.11.38c0,.1,0,.19-.06.28C90.68,47.68,90.69,47.59,90.72,47.49ZM80,76.31h0Zm.39,0h0Zm6.54-3.24,1-.65Zm-6.44,3.24.18,0Zm.26,0,.21,0Zm.28-.06.31-.09Zm.4-.12.28-.1Zm.41-.15.31-.13Zm.44-.19.48-.24Zm.6-.3.43-.23Zm.65-.34.43-.25Zm.65-.37.71-.42Zm.84-.49.68-.42Zm1-.6.65-.4Z"/><path class="cls-2" d="M74.22,44.2A32.46,32.46,0,0,0,76,47.4c.67,1.05,1.4,2.05,2.16,3s1.55,1.92,2.39,2.84,1.68,1.78,2.56,2.64c.54.53,1.09,1,1.66,1.53a3.57,3.57,0,0,0,1,.81A1.87,1.87,0,0,0,87,58.14a3.59,3.59,0,0,0,1-.42,2.29,2.29,0,0,0,1.18-1.52,1.5,1.5,0,0,0-.27-1,23.66,23.66,0,0,0-3.57-3.5A30.88,30.88,0,0,1,81,46.23,37.85,37.85,0,0,1,76.1,34.06a31.54,31.54,0,0,1-.71-6.49c0-.93.79-4.62-.13-5.19a3.26,3.26,0,0,0-1.58-.53c-4.58,0-2,13.83-1.53,16.26A24.09,24.09,0,0,0,74.22,44.2Z"/><path class="cls-2" d="M79.32,66.18l.12.1h0l.06,0a1.18,1.18,0,0,0,.56.22h.09a3,3,0,0,0,1.3-.33,2.65,2.65,0,0,0,.77-.51c.38-.43,1-1,.94-1.68,0-1.65-1.93-3-3-4a35.31,35.31,0,0,1-5.26-5.67,51.91,51.91,0,0,1-6.78-14.83,78.66,78.66,0,0,1-2-8.56,47.58,47.58,0,0,1-.83-8,2,2,0,0,0-2.21-2.25c-1.38,0-2.14,1.72-2.28,2.79A37.08,37.08,0,0,0,61.9,35.6c.82,3.16,1.49,6.38,2.57,9.46a32,32,0,0,0,2.22,5l.07.13c.48.85.87,1.74,1.36,2.59s1,1.71,1.59,2.54a36.28,36.28,0,0,0,4.49,5.48l1.49,1.46c.7.71,1.29,1.51,2,2.26.47.54,1,1,1.53,1.52Z"/><path class="cls-2" d="M73.38,66.62a7.38,7.38,0,0,1-.71-.58,53.82,53.82,0,0,1-7.11-6.78c-3.25-3.83-5.35-8.77-6.76-13.6a27.18,27.18,0,0,1-1-5.27c-.17-1.75-.47-4-2.7-4-1.28,0-2.32,1.68-2.36,2.72a33.87,33.87,0,0,0,1,6.4,38.74,38.74,0,0,0,4.75,12.33,49.14,49.14,0,0,0,9.32,10.69A40.13,40.13,0,0,0,71,71.14,9.61,9.61,0,0,0,74.77,73L75,73a1.85,1.85,0,0,0,1.11-.39A4.17,4.17,0,0,0,77,71.41a1.53,1.53,0,0,0,.35-1C77.12,68.72,74.93,67.53,73.38,66.62Z"/><path class="cls-2" d="M69.93,75.62a27.06,27.06,0,0,1-2.48-1.09,23.07,23.07,0,0,1-7.71-5.73A29.83,29.83,0,0,1,54,59.25a16.35,16.35,0,0,1-.8-2.39c-.12-.54-.21-1.09-.81-1.27a1.85,1.85,0,0,0-1.74.57,4.92,4.92,0,0,0-.48,3.08c.4,3.69,2.5,7.41,4.56,10.42a24.76,24.76,0,0,0,9,7.63A32.15,32.15,0,0,0,67,78.89c1,.4,2.11.75,3.16,1.1l.36.13c.26.09.49.18.72.24l.07,0h.6l.1,0A2.37,2.37,0,0,0,73.22,79c.19-.51.47-1.42.08-1.91A3.14,3.14,0,0,0,72,76.28C71.31,76,70.62,75.82,69.93,75.62Z"/><path class="cls-2" d="M22.93,62.68A5.36,5.36,0,0,1,20.86,59c-.05-1.6.94-3.42,3.14-5.72a1.79,1.79,0,0,0,.71-1.22V52c.16-1.4-.27-2.21-1.27-2.4a5.4,5.4,0,0,0-4.93,2.09,17,17,0,0,0-3.2,4.78A5.54,5.54,0,0,0,15.14,60a11.87,11.87,0,0,0,3.25,4.32c.18.16,2.25,2.16,4.07,4.13l.1.11c3.39,3.7,3.74,4.09,4.55,4a1.15,1.15,0,0,0,.26,0h.07l.09,0a.71.71,0,0,0,.57-.63s0-.12,0-.2c.29-1.14,0-3.17-5.12-8.91ZM22,49.94l-.19,0,.09,0A.34.34,0,0,0,22,49.94Zm1.39,18.82-.6-.66Zm2.2,2.35c.06.06.11.12.17.17S25.69,71.17,25.63,71.11Zm-2.15-2.29.49.53Zm.58.63.37.4Zm.5.54.28.3Zm.41.44.23.24Zm.36.37.18.2Zm.56.57.15.14Zm.23.21.14.13Zm.93.51h0Zm-.74-.34.17.13Zm.19.14.13.09Zm.18.11.08,0Zm.13.06.08,0Zm.13,0h0Z"/><path class="cls-2" d="M43.72,46.81c.83-1.63,1.94-3.75,1.13-5.18a1.27,1.27,0,0,0-.94-.58c-.73-.12-1,.46-1.17,1a23.22,23.22,0,0,1-1.9,4.19,22.22,22.22,0,0,1-3.36,4.58C36.35,52,32,54.23,29.06,55.37c-.8.31-2.46.63-2.58,1.71a2.67,2.67,0,0,0,.72,1.51,1.73,1.73,0,0,0,1.32.49,7.26,7.26,0,0,0,2.66-.76l2.42-1.08a25,25,0,0,0,4.94-2.78A16,16,0,0,0,43.15,48C43.29,47.66,43.5,47.25,43.72,46.81Zm.79-4.51a1,1,0,0,0-.09-.42A1,1,0,0,1,44.51,42.3ZM27,57.14c0-.18.52-.75,2.49-1-2,.29-2.47.86-2.49,1,0,.4.71,1.27,1.15,1.58C27.69,58.41,26.94,57.54,27,57.14Z"/><path class="cls-2" d="M50.8,42.53c-.65.18-.93.89-1.19,1.45-.34.74-.69,1.48-1.06,2.21a38.53,38.53,0,0,1-8,10.75,25.63,25.63,0,0,1-3,2.36,13.9,13.9,0,0,1-3.12,1.53c-1.73.63-3.93,1-5.46,2.21a1.3,1.3,0,0,0-.5.84,1.51,1.51,0,0,0,.06.56c.41,1.72,1.54,2.16,3.09,1.48,3.24-1.44,6.53-2.33,9.35-4.58a24.37,24.37,0,0,0,2.19-2,28.9,28.9,0,0,0,2-2.3c1.25-1.59,2.43-3.23,3.58-4.89a37.78,37.78,0,0,0,3.13-4.78,5.38,5.38,0,0,0,.67-2.83,4.16,4.16,0,0,0-.22-1A1.41,1.41,0,0,0,50.8,42.53Zm-.08.45h0a.27.27,0,0,0-.15,0Z"/><path class="cls-2" d="M50.7,56.61a1,1,0,0,0-.43.28,9.67,9.67,0,0,0-1.05,2,18.3,18.3,0,0,1-1.67,2.26,23.45,23.45,0,0,1-4.25,4,17.63,17.63,0,0,1-8.1,3.28c-.92.11-1.85.16-2.77.24-.63.06-1.51.25-1.8.89a2,2,0,0,0,.9,2.23,2.67,2.67,0,0,0,1.7.08c.82-.15,1.64-.25,2.44-.44,4.33-1,5.66-1.42,8.35-2.87A16.89,16.89,0,0,0,50,63.52c.44-.61.87-1.25,1.28-1.88a6.13,6.13,0,0,0,1.31-3.58,1.84,1.84,0,0,0-.22-.79A1.47,1.47,0,0,0,50.7,56.61ZM31.06,69.74c.1-.13.53-.5,2.06-.58h0C31.59,69.24,31.16,69.61,31.06,69.74Z"/><path class="cls-2" d="M49.83,68.66c-.69-.29-1.27.52-1.61,1a12.51,12.51,0,0,1-2.56,2.42,15.69,15.69,0,0,1-3.24,1.83,10.4,10.4,0,0,1-4.08.9,15.81,15.81,0,0,1-4.08-.43,5,5,0,0,0-1.48-.19c-.33,0-1,.19-1.07.59a1.65,1.65,0,0,0,.64,2,2.17,2.17,0,0,0,.76.18,29.16,29.16,0,0,0,7.46.4,11.1,11.1,0,0,0,2-.44,14.94,14.94,0,0,0,5.31-3.16c.48-.44.94-.9,1.39-1.38a4,4,0,0,0,1.25-2.48,2.34,2.34,0,0,0-.07-.45A1.15,1.15,0,0,0,49.83,68.66Zm-17.26,6h0Zm-.36.86,0,0,0,0Zm0-.57a.63.63,0,0,1,0-.16.63.63,0,0,0,0,.16l0,.57Zm.29,1.27h0l0,0Zm6.68.75H39c.32,0,.62,0,.93-.08C39.68,77,39.42,77,39.15,77Z"/></g></g></svg>