<?xml version="1.0" encoding="utf-8"?>
<!-- Generator: Adobe Illustrator 22.0.0, SVG Export Plug-In . SVG Version: 6.00 Build 0)  -->
<svg version="1.1" id="Layer_1" xmlns="http://www.w3.org/2000/svg" xmlns:xlink="http://www.w3.org/1999/xlink" x="0px" y="0px"
	 viewBox="0 0 217 201" style="enable-background:new 0 0 217 201;" xml:space="preserve">
<style type="text/css">
	.st0{fill:#44312A;}
	.st1{fill:#9C3435;}
	.st2{fill:#FFFFFF;}
</style>
<g>
	<g>
		<path class="st0" d="M48.2,190.8c-0.2-0.5-0.6-0.8-1.2-1.1c-0.2-0.1-0.5-0.2-0.6-0.2s-0.4,0-0.7,0h-0.8v-0.4
			c-0.1-1.3-0.2-2-0.5-2.1c-0.1-0.1-0.2-0.1-0.4-0.1s-0.2,0.1-0.4,0.1c-0.1,0.1-0.1,0.2-0.1,0.2c0,0.1,0,0.2,0,0.4
			c0,0.2,0.1,1.3,0.1,3.2c0,2,0.1,3.1,0.1,3.2s0.1,0.2,0.4,0.4c0.1,0,0.4,0,0.5-0.1c0.1-0.1,0.2-0.4,0.2-0.6c0-0.2,0.1-0.7,0.2-1.4
			c0.1-0.6,0.1-1.1,0.2-1.2c0-0.1,0.1-0.2,0.1-0.4c0.1-0.1,0.1-0.1,0.4-0.1c0.2-0.1,0.5,0,0.8,0.1s0.6,0.4,0.7,0.6
			c0.1,0.2,0.1,0.7,0.2,1.4c0,0.7,0.1,1.2,0.1,1.3c0.1,0.2,0.2,0.2,0.5,0.2s0.5-0.1,0.5-0.2c0.1-0.2,0.1-0.7,0-1.5
			C48.5,191.9,48.4,191.3,48.2,190.8z"/>
		<path class="st0" d="M55.7,190.5c-0.1-0.2-0.4-0.5-0.8-0.7c-0.7-0.5-1.4-0.5-2-0.4c-0.2,0.1-0.5,0.2-0.8,0.6
			c-0.4,0.4-0.6,0.7-0.7,1.1c-0.2,0.4-0.2,0.8-0.2,1.2s0.2,0.8,0.5,1.3c0.5,0.6,0.9,0.9,1.5,0.9c0.6,0,1.2-0.4,1.5-0.9
			c0.2-0.4,0.4-0.5,0.4-0.5s0.1,0.2,0.2,0.7c0.1,0.5,0.2,0.8,0.2,0.9c0.1,0.1,0.2,0.2,0.5,0.2c0.2,0,0.4,0,0.5-0.1s0.1-0.2,0.1-0.5
			c0-0.2-0.1-0.9-0.4-2S55.8,190.7,55.7,190.5z M54.2,192c-0.1,0.4-0.2,0.7-0.5,1.1c-0.2,0.4-0.4,0.5-0.5,0.5s-0.2-0.1-0.5-0.4
			c-0.2-0.2-0.2-0.5-0.4-0.6c0-0.4,0-0.7,0.1-0.9c0.1-0.4,0.4-0.6,0.7-0.7c0.2-0.1,0.6-0.1,0.9,0c0.1,0.1,0.2,0.2,0.2,0.4
			C54.3,191.3,54.3,191.6,54.2,192z"/>
		<path class="st0" d="M63.1,190.5c-0.2-0.5-0.6-0.7-0.9-0.8c-0.2-0.1-0.5,0-0.7,0c-0.2,0.1-0.5,0.2-0.7,0.5l-0.4,0.4l-0.2-0.5
			c-0.4-0.5-0.6-0.7-0.9-0.5c-0.4,0.1-0.4,0.6-0.1,1.2c0.1,0.4,0.2,0.9,0.4,1.6c0.1,0.8,0.1,1.3,0.2,1.5c0.1,0.2,0.1,0.4,0.2,0.4
			c0,0,0.1,0,0.2,0s0.4-0.1,0.5-0.2c0.1-0.2,0.2-0.6,0.4-0.9c0.2-1.3,0.5-2,0.6-2.1h0.1c0.2,0.1,0.5,0.7,0.6,1.6
			c0.1,0.6,0.2,0.9,0.4,1.1c0.1,0.2,0.2,0.4,0.5,0.4c0.4,0,0.5-0.1,0.6-0.5c0-0.4,0-0.8-0.1-1.5C63.6,191.5,63.4,190.9,63.1,190.5z"
			/>
		<path class="st0" d="M71.3,190.2c0-0.4-0.1-0.7-0.1-1.2s-0.1-0.8-0.1-1.2s-0.1-0.6-0.2-0.8c-0.1-0.1-0.2-0.1-0.5-0.1
			c-0.2,0-0.4,0.1-0.5,0.2c-0.1,0.1-0.1,0.4-0.1,0.7s0,0.8,0.1,1.5c0.1,0.6,0.1,0.9,0.1,1.1s-0.1,0.1-0.2,0
			c-0.1-0.1-0.2-0.2-0.4-0.5c-0.1-0.2-0.2-0.5-0.4-0.5c-0.1-0.1-0.2-0.1-0.4-0.1c-0.2,0-0.4,0.1-0.5,0.2c-0.1,0.1-0.4,0.4-0.6,0.5
			c-0.5,0.2-0.9,0.7-1.2,1.4c-0.2,0.6-0.2,1.1-0.1,1.4c0.1,0.5,0.5,0.9,1.1,1.4l0.8,0.8c0.9,0,1.6-0.2,2.1-0.5l0.1,0.4
			c0.1,0.2,0.2,0.5,0.5,0.5c0.2,0.1,0.5,0,0.6-0.2c0.1-0.1,0.1-0.2,0.1-0.6c0-0.2,0-1.1-0.1-2.1C71.4,191.3,71.4,190.6,71.3,190.2z
			 M69.5,193.4c-0.1,0.1-0.2,0.2-0.2,0.2c-0.1,0-0.2,0-0.5-0.1c-0.2-0.1-0.5-0.2-0.7-0.5c-0.2-0.2-0.4-0.5-0.4-0.8s0.1-0.6,0.4-0.8
			c0.2-0.2,0.4-0.4,0.4-0.4s0.2,0.1,0.6,0.2c0.4,0.2,0.6,0.4,0.7,0.4c0.1,0.1,0.1,0.2,0.2,0.4C69.9,192.6,69.9,193.1,69.5,193.4z"/>
		<path class="st0" d="M69.3,195.8C69.3,195.9,69.4,195.9,69.3,195.8c0.1-0.1,0.1-0.2,0.1-0.2c0-0.1,0-0.1,0-0.1
			C69.3,195.4,69.3,195.5,69.3,195.8z"/>
		<path class="st0" d="M76,191.2c-0.5,0-0.8,0-1.2,0c-0.4,0.1-0.6,0.1-0.7,0.2c-0.1,0.1-0.1,0.2-0.1,0.5c0,0.2,0.1,0.4,0.4,0.5
			c0.2,0.1,0.7,0.1,1.3,0.1c0.6,0,1.1,0,1.3-0.1s0.4-0.2,0.4-0.5c0-0.2-0.1-0.4-0.2-0.5C76.8,191.3,76.5,191.2,76,191.2z"/>
		<path class="st0" d="M85.8,189.9c-0.4-0.5-0.9-0.7-1.5-0.5c-0.1,0-0.4,0.1-0.6,0.4c-0.2,0.2-0.4,0.4-0.4,0.5c0,0-0.1,0-0.4-0.2
			c-0.2-0.2-0.4-0.4-0.5-0.5c-0.1,0-0.4-0.1-0.6-0.1s-0.5,0.1-0.7,0.2c-0.2,0.1-0.4,0.2-0.4,0.2c-0.1,0-0.1,0-0.4-0.1
			c-0.1-0.1-0.4-0.1-0.5,0c-0.4,0.1-0.5,0.5-0.4,1.1c0.1,0.2,0.1,0.9,0.2,2c0,0.7,0.1,1.2,0.1,1.3c0,0.2,0.1,0.4,0.2,0.5
			c0.2,0.2,0.5,0.2,0.8,0c0.1-0.1,0.1-0.2,0.2-0.4c0-0.2,0.1-0.6,0.1-1.2c0.1-1.4,0.2-2.1,0.6-2.2c0.1,0,0.1,0,0.2,0.2
			c0.1,0.2,0.2,0.5,0.4,0.8c0.1,0.4,0.2,0.8,0.2,1.4c0.1,0.6,0.1,0.9,0.2,1.1c0.1,0.1,0.2,0.2,0.5,0.2c0.2,0,0.5-0.1,0.5-0.2
			c0.1-0.2,0.1-0.6,0.1-1.2s0-1.2,0.1-1.4c0.1-0.6,0.4-0.8,0.5-0.9c0.2,0,0.5,0.6,0.7,2c0.1,0.6,0.2,1.1,0.4,1.2s0.5,0.1,0.7-0.1
			c0.1-0.1,0.2-0.2,0.2-0.4s0-0.5-0.1-1.1C86.5,191.3,86.2,190.5,85.8,189.9z"/>
		<path class="st0" d="M93.8,190.5c-0.1-0.2-0.4-0.5-0.8-0.7c-0.7-0.5-1.4-0.5-2-0.4c-0.2,0.1-0.5,0.2-0.8,0.6
			c-0.4,0.4-0.6,0.7-0.7,1.1c-0.2,0.4-0.2,0.8-0.2,1.2s0.2,0.8,0.5,1.3c0.5,0.6,0.9,0.9,1.5,0.9c0.6,0,1.2-0.4,1.5-0.9
			c0.2-0.4,0.4-0.5,0.4-0.5s0.1,0.2,0.2,0.7c0.1,0.5,0.2,0.8,0.2,0.9c0.1,0.1,0.2,0.2,0.5,0.2c0.2,0,0.4,0,0.5-0.1
			c0.1-0.1,0.1-0.2,0.1-0.5c0-0.2-0.1-0.9-0.4-2C94,191.3,93.8,190.7,93.8,190.5z M92.1,192c-0.1,0.4-0.2,0.7-0.5,1.1
			c-0.2,0.4-0.4,0.5-0.5,0.5c-0.1,0-0.2-0.1-0.5-0.4c-0.2-0.2-0.2-0.5-0.4-0.6c0-0.4,0-0.7,0.1-0.9c0.1-0.4,0.4-0.6,0.7-0.7
			c0.2-0.1,0.6-0.1,0.9,0c0.1,0.1,0.2,0.2,0.2,0.4C92.4,191.3,92.2,191.6,92.1,192z"/>
		<path class="st0" d="M102,190.2c0-0.4-0.1-0.7-0.1-1.2s-0.1-0.8-0.1-1.2s-0.1-0.6-0.2-0.8c-0.1-0.1-0.2-0.1-0.5-0.1
			c-0.2,0-0.4,0.1-0.5,0.2c-0.1,0.1-0.1,0.4-0.1,0.7s0,0.8,0.1,1.5c0.1,0.6,0.1,0.9,0.1,1.1s-0.1,0.1-0.2,0
			c-0.1-0.1-0.2-0.2-0.4-0.5c-0.1-0.2-0.2-0.5-0.4-0.5c-0.1-0.1-0.2-0.1-0.4-0.1c-0.2,0-0.4,0.1-0.5,0.2c-0.1,0.1-0.4,0.4-0.6,0.5
			c-0.5,0.2-0.9,0.7-1.2,1.4c-0.2,0.6-0.2,1.1-0.1,1.4c0.1,0.5,0.5,0.9,1.1,1.4l0.8,0.8c0.9,0,1.6-0.2,2.1-0.5l0.1,0.4
			c0.1,0.2,0.2,0.5,0.5,0.5c0.2,0.1,0.5,0,0.6-0.2c0.1-0.1,0.1-0.2,0.1-0.6c0-0.2,0-1.1-0.1-2.1C102.1,191.3,102,190.6,102,190.2z
			 M100.1,193.4c-0.1,0.1-0.2,0.2-0.2,0.2c-0.1,0-0.2,0-0.5-0.1c-0.2-0.1-0.5-0.2-0.7-0.5c-0.2-0.2-0.4-0.5-0.4-0.8s0.1-0.6,0.4-0.8
			c0.2-0.2,0.4-0.4,0.4-0.4s0.2,0.1,0.6,0.2c0.4,0.2,0.6,0.4,0.7,0.4c0.1,0.1,0.1,0.2,0.2,0.4C100.6,192.6,100.5,193.1,100.1,193.4z
			"/>
		<path class="st0" d="M100,195.8C100,195.9,100,195.9,100,195.8c0.1-0.1,0.1-0.2,0.1-0.2c0-0.1,0-0.1,0-0.1
			C100,195.4,100,195.5,100,195.8z"/>
		<path class="st0" d="M106,192.7c0.1,0,0.5,0.1,1.2,0c0.7,0,1.2,0,1.4-0.1c0.2,0,0.5-0.1,0.7-0.4c0.2-0.2,0.4-0.4,0.4-0.6
			c0-0.4-0.1-0.6-0.5-0.9s-0.7-0.6-1.2-0.8c-0.2-0.1-0.6-0.2-1.1-0.2s-0.7,0-0.9,0.1c-0.2,0.1-0.5,0.4-0.7,0.7
			c-0.2,0.4-0.5,0.7-0.6,0.9c-0.1,0.4-0.2,0.7-0.1,1.1c0,0.5,0.1,0.8,0.4,1.2c0.2,0.4,0.5,0.7,0.7,0.9c0.2,0.2,0.6,0.4,0.9,0.4
			c0.4,0,0.6,0,0.8,0s0.5-0.1,0.9-0.4c0.5-0.2,0.7-0.4,0.9-0.5c0.1-0.1,0.2-0.2,0.2-0.5c0-0.2-0.1-0.4-0.2-0.5
			c-0.1-0.1-0.2-0.1-0.4-0.1c-0.1,0-0.5,0.1-0.9,0.4c-0.6,0.2-0.9,0.4-1.2,0.2c-0.2,0-0.5-0.4-0.7-0.7l-0.1-0.4
			C105.9,192.6,105.9,192.6,106,192.7z M106.5,191.1c0.2-0.2,0.6-0.2,1.1,0c0.2,0.1,0.5,0.2,0.5,0.2c0.1,0.1-0.1,0.1-0.6,0.1
			s-0.7-0.1-0.9-0.1C106.4,191.3,106.4,191.2,106.5,191.1z"/>
		<path class="st0" d="M118.7,189.6c0.1,0,0.4-0.1,0.5-0.2c0.1-0.1,0.2-0.2,0.2-0.5c0-0.2-0.1-0.5-0.4-0.6c-0.2-0.1-0.5-0.1-0.6,0.1
			c-0.1,0.2-0.2,0.5-0.1,0.7C118.4,189.4,118.5,189.6,118.7,189.6z"/>
		<path class="st0" d="M119.4,191.3c-0.1-0.4-0.1-0.5-0.2-0.6c-0.1-0.1-0.2-0.1-0.5-0.1c-0.2,0-0.4,0.1-0.5,0.2
			c-0.1,0.1-0.1,0.4-0.1,0.7c0,0.4,0.1,0.8,0.2,1.3c0.1,0.6,0.2,0.9,0.4,1.1c0.1,0.1,0.2,0.2,0.5,0.2c0.2,0,0.4-0.1,0.5-0.2
			c0.1-0.1,0.1-0.5,0.1-0.8C119.6,192.1,119.4,191.5,119.4,191.3z"/>
		<path class="st0" d="M126.2,190.5c-0.2-0.5-0.6-0.7-0.9-0.8c-0.2-0.1-0.5,0-0.7,0c-0.2,0.1-0.5,0.2-0.7,0.5l-0.4,0.4l-0.2-0.5
			c-0.4-0.5-0.6-0.7-0.9-0.5c-0.4,0.1-0.4,0.6-0.1,1.2c0.1,0.4,0.2,0.9,0.4,1.6c0.1,0.8,0.1,1.3,0.2,1.5c0.1,0.2,0.1,0.4,0.2,0.4
			c0,0,0.1,0,0.2,0c0.1,0,0.4-0.1,0.5-0.2c0.1-0.2,0.2-0.6,0.4-0.9c0.2-1.3,0.5-2,0.6-2.1h0.1c0.2,0.1,0.5,0.7,0.6,1.6
			c0.1,0.6,0.2,0.9,0.4,1.1c0.1,0.2,0.2,0.4,0.5,0.4c0.4,0,0.5-0.1,0.6-0.5c0-0.4,0-0.8-0.1-1.5
			C126.6,191.5,126.5,190.9,126.2,190.5z"/>
		<path class="st0" d="M140.9,192.1c-0.1,0-0.6,0-1.3,0c-0.7,0-1.2,0-1.3,0s-0.4,0.1-0.4,0.2c-0.1,0.1-0.1,0.2-0.1,0.4
			s0.1,0.2,0.2,0.4c0.1,0.1,0.2,0.1,0.4,0.2c0.1,0,0.5,0,0.9,0s0.7,0,0.7,0.1s-0.1,0.2-0.4,0.5c-0.4,0.5-0.8,0.7-1.3,0.7
			c-0.2,0-0.5-0.1-0.8-0.2c-0.2-0.1-0.5-0.4-0.7-0.6c-0.2-0.4-0.5-0.9-0.5-1.8c0-0.7,0-1.4,0.2-2c0.2-0.6,0.5-0.9,0.7-1.1
			c0.2-0.1,0.6,0,1.1,0c0.5,0.1,0.8,0.2,1.1,0.2c0.1,0.1,0.4,0.4,0.6,0.6c0.1,0.2,0.4,0.5,0.6,0.5s0.4,0,0.5-0.2
			c0.1-0.2,0.2-0.4,0.1-0.4c0-0.1-0.1-0.2-0.2-0.5c-0.1-0.2-0.4-0.6-0.7-0.8c-0.4-0.2-0.6-0.5-0.9-0.5c-0.2-0.1-0.7-0.1-1.2-0.1
			s-0.8,0-1.1,0c-0.1,0-0.4,0.1-0.6,0.2c-0.6,0.2-0.9,0.7-1.2,1.3c-0.2,0.6-0.4,1.4-0.4,2.4c0,0.9,0.1,1.6,0.2,2.1
			c0.1,0.5,0.4,0.8,0.8,1.3c0.6,0.6,1.3,0.9,2.1,0.9c0.4,0,0.7,0,0.9-0.1c0.2-0.1,0.5-0.2,0.7-0.5c0.2-0.2,0.6-0.6,1.1-1.2
			c0.5-0.6,0.6-0.9,0.6-1.2c0-0.1-0.1-0.4-0.2-0.5C141.1,192.5,141.1,192.2,140.9,192.1z"/>
		<path class="st0" d="M147.9,189.1c-0.5-0.1-0.9-0.1-1.3,0c-0.2,0-0.4,0.1-0.6,0.4c-0.2,0.2-0.4,0.4-0.4,0.5c0,0.1,0,0.1-0.1,0.1
			l0,0c0,0-0.1,0-0.1-0.1c0,0-0.1-0.1-0.2-0.2c-0.1-0.1-0.2-0.2-0.2-0.2c-0.1,0-0.2,0-0.4,0s-0.2,0.1-0.4,0.2
			c-0.1,0.1-0.1,0.2,0,0.5c0,0.2,0.1,0.5,0.2,0.9c0.1,0.4,0.2,0.9,0.4,1.8c0.1,0.8,0.1,1.3,0.2,1.5c0.1,0.1,0.2,0.2,0.4,0.2
			c0.1,0,0.4,0,0.5-0.1c0.1-0.1,0.1-0.2,0.1-0.4s0-0.5,0-1.1c0-0.6,0-0.9,0.1-1.1c0-0.2,0.1-0.5,0.4-0.8c0.2-0.4,0.4-0.6,0.4-0.7
			c0.1-0.1,0.2-0.1,0.5-0.1c0.2,0,0.5,0,0.8,0.1c0.4,0.1,0.6,0,0.8-0.1c0.2-0.2,0.2-0.5,0.1-0.7
			C148.8,189.3,148.4,189.2,147.9,189.1z"/>
		<path class="st0" d="M152.8,192.7c0.1,0,0.5,0.1,1.2,0c0.7,0,1.2,0,1.4-0.1c0.2,0,0.5-0.1,0.7-0.4c0.2-0.2,0.4-0.4,0.4-0.6
			c0-0.4-0.1-0.6-0.5-0.9c-0.4-0.4-0.7-0.6-1.2-0.8c-0.2-0.1-0.6-0.2-1.1-0.2s-0.7,0-0.9,0.1c-0.2,0.1-0.5,0.4-0.7,0.7
			c-0.2,0.4-0.5,0.7-0.6,0.9c-0.1,0.4-0.2,0.7-0.1,1.1c0,0.5,0.1,0.8,0.4,1.2c0.2,0.4,0.5,0.7,0.7,0.9c0.2,0.2,0.6,0.4,0.9,0.4
			s0.6,0,0.8,0c0.2,0,0.5-0.1,0.9-0.4c0.5-0.2,0.7-0.4,0.9-0.5c0.1-0.1,0.2-0.2,0.2-0.5c0-0.2-0.1-0.4-0.2-0.5
			c-0.1-0.1-0.2-0.1-0.4-0.1c-0.1,0-0.5,0.1-0.9,0.4c-0.6,0.2-0.9,0.4-1.2,0.2c-0.2,0-0.5-0.4-0.7-0.7l-0.1-0.4
			C152.5,192.6,152.6,192.6,152.8,192.7z M153.2,191.1c0.2-0.2,0.6-0.2,1.1,0c0.2,0.1,0.5,0.2,0.5,0.2c0.1,0.1-0.1,0.1-0.6,0.1
			s-0.7-0.1-0.9-0.1C153,191.3,153.1,191.2,153.2,191.1z"/>
		<path class="st0" d="M160.2,192.7c0.1,0,0.5,0.1,1.2,0c0.7,0,1.2,0,1.4-0.1c0.2,0,0.5-0.1,0.7-0.4c0.2-0.2,0.4-0.4,0.4-0.6
			c0-0.4-0.1-0.6-0.5-0.9c-0.4-0.4-0.7-0.6-1.2-0.8c-0.2-0.1-0.6-0.2-1.1-0.2s-0.7,0-0.9,0.1c-0.2,0.1-0.5,0.4-0.7,0.7
			c-0.2,0.4-0.5,0.7-0.6,0.9c-0.1,0.4-0.2,0.7-0.1,1.1c0,0.5,0.1,0.8,0.4,1.2c0.2,0.4,0.5,0.7,0.7,0.9c0.2,0.2,0.6,0.4,0.9,0.4
			c0.4,0,0.6,0,0.8,0c0.2,0,0.5-0.1,0.9-0.4c0.5-0.2,0.7-0.4,0.9-0.5c0.1-0.1,0.2-0.2,0.2-0.5c0-0.2-0.1-0.4-0.2-0.5
			c-0.1-0.1-0.2-0.1-0.4-0.1c-0.1,0-0.5,0.1-0.9,0.4c-0.6,0.2-0.9,0.4-1.2,0.2c-0.2,0-0.5-0.4-0.7-0.7l-0.1-0.4
			C160.1,192.6,160.1,192.6,160.2,192.7z M160.7,191.1c0.2-0.2,0.6-0.2,1.1,0c0.2,0.1,0.5,0.2,0.5,0.2c0.1,0.1-0.1,0.1-0.6,0.1
			s-0.7-0.1-0.9-0.1C160.5,191.3,160.5,191.2,160.7,191.1z"/>
		<path class="st0" d="M170.6,192.9c-0.2-0.1-0.4-0.1-0.4-0.1c-0.1,0-0.2,0.1-0.6,0.4c-0.4,0.2-0.6,0.4-0.9,0.4
			c-0.4,0-0.6,0-0.7-0.2c-0.2-0.2-0.4-0.7-0.2-1.4c0.1-0.7,0.1-1.2,0.4-1.4c0.1-0.1,0.5-0.1,0.8,0c0.4,0.1,0.6,0.4,0.7,0.7
			c0.1,0.2,0.2,0.5,0.5,0.5c0.2,0.1,0.4,0,0.6-0.1c0.2-0.1,0.2-0.4,0.2-0.7s-0.2-0.7-0.5-0.9c-0.2-0.4-0.7-0.6-1.4-0.7
			c-0.6-0.1-1.1-0.1-1.4,0c-0.5,0.2-0.8,0.8-1.1,1.6c-0.2,0.8-0.2,1.6,0,2.4c0.1,0.6,0.5,0.9,0.9,1.3c0.5,0.2,0.9,0.4,1.5,0.2
			s1.1-0.4,1.6-0.8c0.2-0.2,0.4-0.4,0.4-0.6C170.9,193.2,170.8,193.1,170.6,192.9z"/>
		<path class="st0" d="M174.7,192.7c0.1,0,0.5,0.1,1.2,0c0.7,0,1.2,0,1.4-0.1c0.2,0,0.5-0.1,0.7-0.4c0.2-0.2,0.4-0.4,0.4-0.6
			c0-0.4-0.1-0.6-0.5-0.9c-0.4-0.4-0.7-0.6-1.2-0.8c-0.2-0.1-0.6-0.2-1.1-0.2s-0.7,0-0.9,0.1c-0.2,0.1-0.5,0.4-0.7,0.7
			c-0.2,0.4-0.5,0.7-0.6,0.9c-0.1,0.4-0.2,0.7-0.1,1.1c0,0.5,0.1,0.8,0.4,1.2c0.2,0.4,0.5,0.7,0.7,0.9c0.2,0.2,0.6,0.4,0.9,0.4
			c0.4,0,0.6,0,0.8,0c0.2,0,0.5-0.1,0.9-0.4c0.5-0.2,0.7-0.4,0.9-0.5c0.1-0.1,0.2-0.2,0.2-0.5c0-0.2-0.1-0.4-0.2-0.5
			c-0.1-0.1-0.2-0.1-0.4-0.1c-0.1,0-0.5,0.1-0.9,0.4c-0.6,0.2-0.9,0.4-1.2,0.2c-0.2,0-0.5-0.4-0.7-0.7l-0.1-0.4
			C174.6,192.6,174.6,192.6,174.7,192.7z M175.1,191.1c0.2-0.2,0.6-0.2,1.1,0c0.2,0.1,0.5,0.2,0.5,0.2c0.1,0.1-0.1,0.1-0.6,0.1
			s-0.7-0.1-0.9-0.1C175,191.3,175,191.2,175.1,191.1z"/>
		<path class="st0" d="M58.1,125.5c-0.7-0.9-1.5-1.6-2.5-2.1c-0.6-0.2-1.1-0.5-1.5-0.5c-0.4-0.1-0.8,0-1.3,0.1
			c-1.3,0.4-2.4,1.2-3.2,2.1c-0.8,1.1-1.2,2.2-1.2,3.7c0,1.1,0.4,2.1,0.9,2.9c0.6,0.8,1.4,1.4,2.5,1.8c1.1,0.4,2.1,0.4,3.2,0
			c1.1-0.4,2-1.1,2.8-2c0.8-0.9,1.2-2,1.2-2.9C59.1,127.3,58.8,126.4,58.1,125.5z M57,128.9c-0.1,0.5-0.5,0.9-0.8,1.4
			c-0.4,0.5-0.8,0.7-1.2,0.9c-0.4,0.2-0.8,0.4-1.4,0.4c-0.9,0-1.6-0.4-2.2-0.9c-0.6-0.6-0.7-1.3-0.7-2.2c0.1-0.9,0.4-1.5,0.7-2.1
			c0.4-0.5,0.9-0.9,1.6-1.2c0.4-0.2,0.7-0.2,0.8-0.2s0.5,0.1,0.9,0.5c0.8,0.5,1.5,1.3,2.1,2.4C57.1,127.9,57.1,128.4,57,128.9z"/>
		<path class="st0" d="M64.4,131.1c0.1,0.7,0.5,1.2,0.7,1.4c0.4,0.2,0.7,0.4,1.2,0.5c0.5,0,0.9-0.1,1.4-0.2c0.5-0.1,0.8-0.4,1.1-0.7
			c0.2-0.4,0.4-0.6,0.2-0.9c-0.2-0.6-0.8-0.8-1.6-0.6c-0.6,0.1-0.8,0.2-0.9,0.1s-0.1-0.8-0.1-2.1c0-1.3,0-2.1-0.1-2.5
			c0-0.2-0.1-0.5-0.4-0.7c-0.5-0.5-0.9-0.5-1.4-0.1c-0.1,0.1-0.2,0.2-0.2,0.4c0,0.1-0.1,0.4-0.1,0.8c0,0.4,0,1.1,0,2.2
			C64.2,129.5,64.3,130.4,64.4,131.1z"/>
		<path class="st0" d="M74.7,130.8c0.1,1.4,0.1,2.2,0.2,2.6c0.1,0.4,0.1,0.6,0.4,0.7c0.5,0.4,0.9,0.4,1.4-0.1
			c0.1-0.1,0.2-0.4,0.4-0.5c0-0.1,0-0.5,0-1.1s0-0.8,0-0.8s0.6,0.4,1.3,1.2c0.8,0.8,1.4,1.3,1.8,1.5c0.4,0.2,0.7,0.1,1.1,0
			c0.4-0.2,0.5-0.6,0.5-0.9c0-0.1-0.2-0.4-0.6-0.7c-0.4-0.4-0.8-0.8-1.3-1.3l-1.9-1.8l1.2-0.9c0.9-0.7,1.5-1.3,1.8-1.5
			c0.2-0.2,0.4-0.5,0.4-0.7s0-0.4-0.1-0.6c-0.1-0.2-0.2-0.4-0.4-0.5c-0.1-0.1-0.4-0.1-0.6-0.1s-0.5,0.1-0.8,0.4
			c-0.4,0.2-0.8,0.6-1.5,1.2c-0.7,0.6-1.1,0.8-1.1,0.8s-0.1-0.2-0.4-0.8c-0.2-0.9-0.6-1.4-1.2-1.4c-0.9,0-1.3,0.7-0.9,2
			C74.4,128.3,74.6,129.5,74.7,130.8z"/>
		<path class="st0" d="M94.5,132.3c0.6-0.6,0.9-1.2,1.1-1.8c0.1-0.6,0.1-1.3-0.1-2s-0.5-1.2-0.6-1.4c-0.2-0.2-0.6-0.5-1.3-0.8
			c-1.5-0.7-2.9-0.8-4.2-0.4c-1.8,0.7-2.6,1.9-2.6,3.7c0,0.6,0.1,1.2,0.2,1.6c0.2,0.5,0.5,0.8,0.9,1.3c0.9,0.9,2.1,1.3,3.3,1.3
			C92.4,133.8,93.4,133.3,94.5,132.3z M90.2,131.6c-0.4-0.1-0.7-0.4-0.9-0.7c-0.2-0.2-0.4-0.6-0.5-0.9c-0.1-0.4,0-0.7,0.2-1.2
			c0.2-0.4,0.6-0.7,1.3-0.8c0.6-0.1,1.3-0.1,1.8,0.1c0.9,0.4,1.3,0.9,1.3,1.6c0,0.2,0,0.5-0.1,0.7c-0.1,0.1-0.4,0.4-0.7,0.7
			s-0.8,0.5-1.2,0.6C91.1,131.8,90.6,131.8,90.2,131.6z"/>
		<path class="st0" d="M108.5,126.2c-0.2,0.1-0.5,0.2-0.7,0.5c-0.2,0.2-0.7,0.9-1.4,1.9l-0.8,1.2c-0.6,0.8-0.9,1.3-1.1,1.2
			c-0.1,0-0.4-0.9-0.7-2.6c-0.5-1.6-0.8-2.8-1.1-3.4c-0.4-0.6-0.7-0.9-1.1-0.9c-0.2,0-0.5,0.1-0.7,0.4c-0.2,0.2-0.4,0.5-0.4,0.7
			s0.1,0.6,0.4,1.2c0.2,0.6,0.6,1.8,1.2,3.7c0.5,1.9,0.7,2.9,0.7,3.2c0,0.4,0.1,0.6,0.2,0.7c0.1,0.1,0.2,0.4,0.5,0.7
			c0.1,0.4,0.4,0.7,0.6,1.4c0.2,0.6,0.5,0.9,0.7,1.2c0.2,0.1,0.5,0.2,0.7,0.1c0.2,0,0.5-0.1,0.7-0.4c0.2-0.2,0.2-0.5,0.2-0.8
			s-0.2-0.8-0.5-1.6c-0.2-0.7-0.4-1.2-0.2-1.3c0.4-0.2,1.2-1.2,2.5-3.1c1.3-1.8,1.9-2.8,1.9-3.1c0-0.1-0.1-0.4-0.5-0.6
			C109.1,126.2,108.7,126,108.5,126.2z"/>
		<path class="st0" d="M117.4,124.5c0.4-0.1,0.9-0.6,1.6-1.4c0.8-0.8,1.2-1.3,1.2-1.5c0-0.2-0.1-0.5-0.4-0.7
			c-0.2-0.2-0.5-0.4-0.7-0.4s-0.5,0.1-0.7,0.4c-0.2,0.2-0.7,0.6-1.3,1.2c-0.6,0.6-0.9,1.1-1.1,1.4c-0.1,0.4,0,0.6,0.2,0.8
			C116.8,124.5,117.2,124.6,117.4,124.5z"/>
		<path class="st0" d="M115.4,130.6c0,0.1-0.1,0.4-0.2,0.7c-0.2,0.4-0.2,0.7-0.2,0.9s0.1,0.7,0.4,1.2c0.5,0.9,1.3,1.5,2.5,1.6
			c1.2,0.1,2.4-0.2,3.5-1.1c0.4-0.2,0.7-0.5,0.8-0.6c0.1-0.1,0.2-0.4,0.2-0.7s0-0.6-0.2-0.8c-0.1-0.2-0.4-0.2-0.8-0.2
			c-0.4,0-0.7,0.1-0.9,0.4c-0.2,0.2-0.6,0.4-0.9,0.6c-0.4,0.2-0.7,0.4-1.1,0.4c-0.4,0.1-0.6,0.1-0.7,0c-0.2-0.1-0.5-0.2-0.5-0.5
			c0-0.2,0-0.6,0.2-0.8c0.2-0.2,0.4-0.6,0.5-0.9c0.1-0.4,0.1-0.6,0-0.7c-0.1-0.1-0.2-0.4-0.6-0.7c-0.2-0.4-0.5-0.6-0.5-0.8
			c0-0.2,0.1-0.5,0.5-0.7c0.2-0.2,0.5-0.4,0.6-0.4c0.1,0,0.4,0.1,0.8,0.2c0.4,0.2,0.7,0.2,0.8,0.4c0.2,0,0.4,0,0.6,0
			c0.2-0.1,0.4-0.1,0.4-0.2c0.1-0.1,0.1-0.4,0.1-0.7c0-0.4,0-0.6-0.1-0.7c-0.1-0.1-0.4-0.4-0.8-0.6c-0.5-0.2-0.9-0.4-1.5-0.5
			c-0.5-0.1-0.9-0.1-1.2,0c-0.2,0.1-0.5,0.2-0.7,0.4s-0.4,0.4-0.6,0.5c-0.2,0.2-0.4,0.5-0.6,0.7s-0.4,0.7-0.4,1.4
			c0,0.6,0.1,1.1,0.2,1.5C115.3,130.2,115.4,130.4,115.4,130.6z"/>
		<path class="st0" d="M128.4,129c0.5,1.3,0.8,2.1,1.1,2.5c0.1,0.4,0.4,0.7,0.5,0.9c0.1,0.2,0.2,0.5,0.4,0.6
			c0.1,0.1,0.2,0.2,0.4,0.4c0.1,0.1,0.2,0.1,0.5,0.1c0.1,0,0.2,0,0.5-0.1c0.2,0,0.4-0.1,0.5-0.2c0.1-0.1,0.2-0.2,0.4-0.4
			c0.1-0.1,0.2-0.4,0.5-0.6c0.1-0.2,0.6-0.8,1.2-1.8c0.6-0.9,1.1-1.6,1.3-2.2c0.2-0.5,0.4-0.8,0.2-1.2s-0.2-0.5-0.5-0.7
			c-0.2-0.1-0.5-0.1-0.8,0c-0.2,0.1-0.8,0.8-1.5,2c-0.8,1.3-1.2,1.9-1.2,1.9s-0.4-0.7-0.8-2c-0.5-1.3-0.9-2.4-1.4-2.8
			c-0.5-0.6-0.9-0.6-1.5-0.4c-0.2,0.1-0.4,0.4-0.4,0.7c0,0.4,0,0.7,0.1,0.9C127.6,127,127.8,127.7,128.4,129z"/>
		<path class="st0" d="M140.4,133.2c0.1,0.6,0.5,0.9,1.1,1.3c0.6,0.4,1.3,0.5,2.1,0.6c0.8,0,1.6-0.1,2.5-0.4
			c0.8-0.2,1.3-0.5,1.5-0.7c0.2-0.2,0.2-0.6,0.1-0.9s-0.4-0.6-0.7-0.7c-0.4-0.1-0.8,0-1.5,0.2c-0.6,0.1-1.2,0.2-1.8,0.2
			s-0.9,0-1.2-0.1c-0.1-0.1,0.1-0.5,0.8-0.9c0.6-0.5,0.9-0.7,1.1-0.9c0.1-0.2,0.1-0.5,0-0.8s-0.5-0.6-0.9-0.7
			c-0.9-0.2-1.1-0.8-0.4-1.6c0.4-0.4,0.6-0.5,0.9-0.5c0.2,0,0.5,0.1,0.7,0.5c0.1,0.4,0.4,0.6,0.6,0.7c0.2,0.1,0.5,0,0.7-0.1
			c0.2-0.1,0.5-0.2,0.5-0.4s0.1-0.4,0-0.7c0-0.9-0.5-1.6-1.5-2c-0.4-0.1-0.7-0.2-0.9-0.2c-0.2,0-0.7,0-1.2,0.2
			c-0.5,0.1-1.1,0.6-1.6,1.4c-0.6,0.8-0.8,1.4-0.8,2c0,0.4,0.1,0.7,0.4,1.3l0.4,0.8l-0.4,0.4C140.4,131.7,140.3,132.4,140.4,133.2z"
			/>
		<path class="st0" d="M153.1,131.1c0.1,0.7,0.5,1.2,0.7,1.4c0.4,0.2,0.7,0.4,1.2,0.5c0.5,0,0.9-0.1,1.4-0.2s0.8-0.4,1.1-0.7
			c0.2-0.4,0.4-0.6,0.2-0.9c-0.2-0.6-0.8-0.8-1.6-0.6c-0.6,0.1-0.8,0.2-0.9,0.1c-0.1-0.1-0.1-0.8-0.1-2.1c0-1.3,0-2.1-0.1-2.5
			c0-0.2-0.1-0.5-0.4-0.7c-0.5-0.5-0.9-0.5-1.4-0.1c-0.1,0.1-0.2,0.2-0.2,0.4c0,0.1-0.1,0.4-0.1,0.8c0,0.4,0,1.1,0,2.2
			C152.8,129.5,152.9,130.4,153.1,131.1z"/>
		<path class="st0" d="M168,132.8c0.1-0.1,0.2-0.2,0.4-0.2c0.1-0.1,0.2-0.1,0.2-0.2c0.1,0,0.1-0.1,0.1,0l0.4,0.8
			c0.1,0.4,0.4,0.6,0.6,0.7c0.2,0.1,0.5,0.1,0.8,0.1c0.4-0.1,0.6-0.2,0.7-0.6c0.1-0.4,0-0.7-0.1-1.2c-0.1-0.2-0.2-0.6-0.2-0.9
			s0-0.9,0-1.9s0.1-1.4,0-1.8c0-0.2-0.1-0.5-0.4-0.7c-0.2-0.2-0.5-0.2-0.7-0.2c-0.4,0-0.7-0.1-1.2-0.5c-0.5-0.4-1.1-0.6-1.6-0.6
			c-0.7,0-1.3,0-1.8,0.4c-0.6,0.2-0.9,0.7-1.4,1.2c-0.4,0.5-0.6,1.2-0.7,1.8c-0.2,0.9-0.1,1.9,0.2,2.7c0.4,0.8,0.8,1.4,1.5,1.6
			c0.7,0.4,1.3,0.5,1.8,0.4C166.9,133.6,167.5,133.2,168,132.8z M166,131.5c-0.2,0-0.5-0.1-0.7-0.5c-0.2-0.4-0.4-0.6-0.4-0.9
			c0-0.6,0.2-1.2,0.6-1.8c0.4-0.6,0.8-0.7,1.2-0.6c0.2,0.1,0.4,0.1,0.4,0.1c0.1,0,0.1,0,0.2,0.1c0.1,0.1,0.2,0.2,0.4,0.5
			s0.2,0.4,0.2,0.5c0,0.1-0.1,0.4-0.4,0.8c-0.2,0.4-0.5,0.8-0.8,1.2C166.4,131.2,166.2,131.5,166,131.5z"/>
		<path class="st0" d="M23.8,158.7c-1.1-2.7-2.2-5.4-3.5-7.9c-1.8-3.5-2.6-4.5-3.1-4.8c-0.8-0.6-1.8-0.9-2.8-0.9
			c-1.1,0-2,0.5-2.7,1.2c-0.4,0.4-0.9,0.9-5.5,10.5c-4.7,9.7-4.7,10.1-4.7,10.6c0,0.8,0.4,1.5,1.2,2.2c0.7,0.7,1.5,0.9,2.5,0.9
			c1.1,0,2-0.7,2.9-2.1l0,0c0.7-1.1,2.1-3.8,4.2-8.1c1.1-2.2,1.8-3.7,2.2-4.6c0.5,0.9,1.1,2.2,1.6,3.8c0.7,1.8,1.5,3.7,2.4,5.7
			c0.9,2.2,1.9,3.7,2.8,4.5c0.6,0.5,2.2,1.3,4.1-0.6c0.8-0.7,1.3-1.5,1.3-2.4c0-0.7-0.2-1.5-0.8-2.6
			C25.6,163.1,24.9,161.4,23.8,158.7z"/>
		<path class="st0" d="M44.7,170.1c2.9-0.1,5.7-1.4,8.1-3.8c1.4-1.4,2.4-2.9,2.7-4.6c0.4-1.6,0.2-3.3-0.5-5.1
			c-0.6-1.8-1.2-2.8-1.6-3.4c-0.4-0.4-1.1-0.9-3.3-2c-3.8-1.6-7.2-1.9-10.2-0.7c-4.2,1.6-6.5,4.7-6.5,9.1c0,1.5,0.2,2.9,0.7,4.1
			c0.5,1.2,1.3,2.2,2.5,3.3c2.4,2.1,4.8,3.2,7.7,3.2C44.3,170.1,44.5,170.1,44.7,170.1z M41.2,161.6c-0.4-0.5-0.7-1.2-0.8-1.8
			c-0.1-0.6,0-1.1,0.4-1.8c0.2-0.6,0.9-0.9,2-1.2c0.5-0.1,0.9-0.1,1.3-0.1c0.7,0,1.3,0.1,2,0.4l0,0c2,0.7,2.2,1.8,2.2,2.6
			c0,0.6-0.1,0.8-0.1,0.8s-0.2,0.4-1.3,1.2c-0.7,0.6-1.4,0.9-2,1.1c-0.6,0.1-1.3,0-2-0.2C42.2,162.4,41.7,162.1,41.2,161.6z"/>
		<path class="st0" d="M81.6,156.7c-0.1-1.2-0.4-2.4-0.8-3.4c-0.5-1.3-1.2-2.1-2.1-2.5c-0.9-0.5-2-0.4-2.9,0.2
			c-0.8,0.6-1.3,1.3-1.4,2.1c-0.1,0.4-0.1,1.2-0.1,4c0,2.5-0.1,3.5-0.2,4c-0.1,0.6-0.2,1.2-0.6,1.8c-0.4,0.8-0.6,1.2-0.7,1.4
			c-0.1,0.1-0.1,0.1-0.1,0.1s-0.1,0-0.2,0c-0.2,0-1.1,0-1.9-2c-0.7-1.8-1.1-4.1-1.1-7.1c0-5.1-0.4-5.5-0.6-6c-0.5-0.6-1.1-0.9-2-1.1
			c-0.8-0.1-1.5,0-2.4,0.4c-1.4,0.7-2.2,2.2-2.5,4.8c-0.2,2.2,0,4.8,0.7,7.7c0.7,2.9,1.5,5.1,2.4,6.5c0.9,1.5,2.4,2.6,4.1,3.4
			c1.1,0.5,2.1,0.7,3.2,0.7c1.6,0,3.2-0.6,4.6-1.8c2.1-1.8,3.4-4.7,4-8.6C81.6,159.4,81.8,157.8,81.6,156.7z"/>
		<path class="st0" d="M107.1,167.7c0-0.5-0.2-0.9-1.5-2.4c-0.8-0.9-1.9-1.9-2.9-2.9l-3.1-2.9l1.5-1.2c2.2-1.8,3.5-2.8,4.1-3.4
			c0.8-0.7,1.2-1.5,1.2-2.4c0-0.7-0.1-1.3-0.5-1.9c-0.4-0.6-0.7-1.1-1.3-1.3c-0.6-0.4-1.2-0.5-1.9-0.5s-1.5,0.4-2.5,1.1
			c-0.7,0.6-1.9,1.4-3.4,2.7c-0.5,0.4-0.9,0.7-1.2,0.9c0-0.1,0-0.1-0.1-0.2c-0.7-2.7-1.9-4.1-3.8-4.1l0,0c-1.5,0-2.4,0.7-2.7,1.3
			c-0.8,1.1-0.9,2.6-0.5,4.6c0.4,1.6,0.7,4.1,0.8,7.2c0.1,3.2,0.4,5.2,0.5,6c0.2,1.2,0.6,1.9,1.2,2.2c1.5,1.2,3.2,0.9,4.6-0.4
			c0.5-0.5,0.8-1.1,0.9-1.6c0.1-0.4,0.1-0.8,0-2c0.2,0.2,0.6,0.6,1.1,1.1c1.9,1.9,3.2,3.1,4.1,3.7c0.6,0.2,1.1,0.4,1.6,0.4
			s1.3-0.1,1.9-0.5C106.1,170.4,107.2,169.5,107.1,167.7z"/>
		<path class="st0" d="M134.9,166.4c-1.1-2.9-1.3-5.8-0.5-8.6c0.6-2.1,0.6-3.5,0.1-4.4c-0.5-0.8-1.2-1.4-2.1-1.6
			c-0.9-0.2-1.8,0-2.5,0.5c-0.2,0.1-0.4,0.2-0.5,0.2c-0.1-0.1-0.4-0.2-0.7-0.5c-0.8-0.6-1.9-0.9-3.2-1.2c-0.2,0-0.6-0.1-0.8-0.1l0,0
			c0.2-0.2,0.8-0.8,2.1-2.5c1.1-1.3,1.6-2.4,2-3.1c0.4-0.9,0.2-2-0.4-2.7c-1.1-1.6-2.7-2.1-4.5-1.3c-0.6,0.2-1.4,0.8-3.1,3.2
			c-1.3,1.9-1.9,3.1-1.9,4c0,0.9,0.5,1.6,1.1,2.4c0.2,0.2,0.5,0.5,0.8,0.6c-2,0.6-3.7,1.6-4.9,3.3c-1.5,1.9-2.4,4.2-2.4,6.9
			c0,1.8,0.4,3.4,0.9,4.8c0.7,1.5,1.6,2.6,2.8,3.4c1.2,0.7,2.5,1.2,4,1.2c1.5,0.1,3.1-0.2,4.5-1.1c1.1-0.6,1.6-0.9,2-1.2
			c0,0.1,0.1,0.2,0.2,0.5c0.6,1.3,1.3,2.2,2.2,2.8c0.5,0.4,1.1,0.5,1.6,0.5s1.1-0.1,1.6-0.5c0.9-0.6,1.5-1.3,1.8-2.1
			C135.5,168.8,135.3,167.9,134.9,166.4z M125.8,160.1c-0.5,0.8-1.2,1.6-2.1,2.5c-1.2,1.1-1.8,1.1-1.9,1.1c-0.5,0-0.8-0.6-0.9-1.9
			c-0.1-1.5,0.4-2.6,1.4-3.3c0.8-0.5,1.4-0.6,1.6-0.6l0,0c0.1,0,0.6,0.1,1.4,0.6c0.6,0.4,0.8,0.6,0.9,0.7
			C126.2,159.3,126,159.5,125.8,160.1z"/>
		<path class="st0" d="M160.8,167.7c0-0.5-0.2-0.9-1.5-2.4c-0.8-0.9-1.9-1.9-2.9-2.9l-3.1-2.9l1.5-1.2c2.2-1.8,3.5-2.8,4.1-3.4
			c0.8-0.7,1.2-1.5,1.2-2.4c0-0.7-0.1-1.3-0.5-1.9c-0.4-0.6-0.7-1.1-1.3-1.3c-0.6-0.4-1.2-0.5-1.9-0.5c-0.7,0-1.5,0.4-2.5,1.1
			c-0.7,0.6-1.9,1.4-3.4,2.7c-0.5,0.4-0.9,0.7-1.2,0.9c0-0.1,0-0.1-0.1-0.2c-0.8-3.4-2.5-4.1-3.8-4.1l0,0c-1.5,0-2.4,0.7-2.7,1.3
			c-0.8,1.1-0.9,2.6-0.5,4.6c0.4,1.8,0.7,4.1,0.8,7.2c0.1,3.2,0.4,5.2,0.5,6c0.2,1.2,0.6,1.9,1.2,2.2c1.5,1.2,3.2,0.9,4.6-0.5
			c0.5-0.5,0.8-1.1,0.9-1.6c0.1-0.2,0.1-0.7,0-2c0.2,0.2,0.6,0.6,1.1,1.1c1.9,1.9,3.2,3.1,4.1,3.7c0.6,0.2,1.1,0.4,1.6,0.4
			s1.3-0.1,1.9-0.5C159.8,170.4,160.9,169.5,160.8,167.7z"/>
		<path class="st0" d="M187.4,153.2c-0.4-0.4-1.1-0.9-3.3-2c-3.8-1.6-7.2-1.9-10.2-0.7c-4.2,1.6-6.5,4.7-6.5,9.1
			c0,1.5,0.2,2.9,0.7,4.1c0.5,1.2,1.3,2.2,2.5,3.3c2.4,2.1,4.8,3.2,7.7,3.2c0.1,0,0.4,0,0.5,0c2.9-0.1,5.7-1.4,8.1-3.8
			c1.4-1.4,2.4-2.9,2.7-4.6c0.4-1.6,0.2-3.3-0.5-5.1C188.2,154.3,187.7,153.6,187.4,153.2z M182.2,160.8c0,0-0.2,0.4-1.3,1.2
			c-0.7,0.6-1.4,0.9-2,1.1c-0.6,0.1-1.3,0-2-0.2c-0.7-0.2-1.3-0.7-1.6-1.2c-0.4-0.5-0.7-1.2-0.8-1.8c-0.1-0.6,0-1.1,0.4-1.8
			c0.2-0.6,0.9-0.9,2-1.2c0.5-0.1,0.9-0.1,1.3-0.1c0.7,0,1.3,0.1,2,0.4l0,0c2,0.7,2.2,1.8,2.2,2.6
			C182.3,160.4,182.2,160.7,182.2,160.8z"/>
		<path class="st0" d="M215,153.2c-0.5-1.3-1.2-2.1-2.1-2.5c-0.9-0.5-2-0.4-2.9,0.2c-0.8,0.6-1.3,1.3-1.4,2.1
			c-0.1,0.4-0.1,1.2-0.1,4c0,2.5-0.1,3.5-0.2,4c-0.1,0.6-0.2,1.2-0.6,1.8c-0.4,0.8-0.6,1.2-0.7,1.4c-0.1,0.1-0.1,0.1-0.1,0.1
			s-0.1,0-0.2,0c-0.2,0-1.1,0-1.9-2c-0.7-1.8-1.1-4.1-1.1-7.1c0-5.1-0.4-5.5-0.6-6c-0.5-0.6-1.1-0.9-2-1.1c-0.8-0.1-1.5,0-2.4,0.4
			c-1.4,0.7-2.2,2.2-2.5,4.8c-0.2,2.2,0,4.8,0.7,7.7c0.7,2.9,1.5,5.1,2.4,6.5c0.9,1.5,2.4,2.6,4.1,3.4c1.1,0.5,2.1,0.7,3.2,0.7
			c1.6,0,3.2-0.6,4.6-1.8c2.1-1.8,3.4-4.7,4-8.6c0.4-1.9,0.5-3.4,0.5-4.6C215.7,155.5,215.4,154.3,215,153.2z"/>
	</g>
	<g>
		<path class="st1" d="M168.2,44c-2-9.4-5.7-18.5-12.6-25.6C132.4-5.4,94,5.7,73.2,26.9C67.6,32.5,62.9,39,59.7,46.2
			c-3.9,8.5-7.1,18.8-5.5,28.3c3.4,21.7,29.8,31.7,49.1,31.4c6.8-0.1,13.5-1.5,20.1-2.9c12.4-2.7,25.7-6.8,35.2-15.9
			c9.4-9.1,12.2-22.1,11-34.9C169.1,49.4,168.8,46.7,168.2,44z"/>
		<path class="st2" d="M109.8,29c-0.6-1.6-1.9-2.9-3.7-3.3c-1.8-0.2-3.5,0.5-4.9,1.5c0,0,0,0-0.1,0c-1.2,0.8-2,2-2.4,3.3
			c-0.4,1.1-0.6,2.5-0.2,3.5c0.7,2.2,3.7,2.7,5.7,2.4c0.7-0.1,1.4-0.4,2-0.7c1.6-0.7,3.4-1.5,4-3.4C110.5,31.2,110.3,30.1,109.8,29z
			"/>
		<path class="st2" d="M154.8,56.9c-1.2-2.7-3.9-6-7.2-5.5c-2.5,0.4-2.4,2.8-1.6,4.7c1.3,3.1,3.4,5.9,2.4,9.4l-0.1,0.4
			c-0.5,1.5-0.5,1.6-2.9,4.2l-0.8,0.7c-1.2,1.2-2.9,2.7-4.7,4.2c-2.7,2.4-5.2,4.6-5.8,5.4c-0.6,0.8-0.4,1.9,0.4,2.5l0.2,0.1
			c0.2,0.1,0.6,0.2,1.1,0.2c1.1,0,2.7-0.7,7.9-4c3.2-2.1,6.4-4.4,6.8-4.6c3.3-2.5,5.8-6.1,5.9-10.2
			C156.3,61.9,155.8,59.3,154.8,56.9z M147.8,51.6c-0.1,0-0.2,0-0.4,0c0.1,0,0.1,0,0.2,0H147.8z M147.2,51.7c-0.1,0-0.1,0.1-0.2,0.1
			C147.1,51.7,147.1,51.7,147.2,51.7z M146.9,51.8c-0.1,0-0.1,0.1-0.2,0.1C146.8,52,146.8,52,146.9,51.8z M146.5,52.2
			c0,0.1-0.1,0.1-0.1,0.2C146.4,52.3,146.5,52.2,146.5,52.2z M146.3,52.6c0,0.1-0.1,0.1-0.1,0.2C146.2,52.7,146.3,52.7,146.3,52.6z
			 M145.9,53.7c0,0.1,0,0.2,0,0.4C145.9,53.8,145.9,53.8,145.9,53.7z M146.2,52.9c0,0.1,0,0.1-0.1,0.2
			C146.1,53.1,146.1,53,146.2,52.9z M146.1,53.4c0,0.1,0,0.2,0,0.2C145.9,53.5,145.9,53.4,146.1,53.4z M135.1,82.7L135.1,82.7
			L135.1,82.7z M135.5,82.7L135.5,82.7L135.5,82.7L135.5,82.7z M142.2,79.4c0.4-0.2,0.7-0.5,1.1-0.7
			C142.8,78.9,142.5,79.2,142.2,79.4z M135.6,82.7c0,0,0.1,0,0.2,0C135.7,82.7,135.7,82.7,135.6,82.7z M135.8,82.7
			c0.1,0,0.1,0,0.2,0C135.9,82.7,135.9,82.7,135.8,82.7z M136.2,82.6c0.1,0,0.2,0,0.4-0.1C136.3,82.6,136.3,82.6,136.2,82.6z
			 M136.5,82.5c0.1,0,0.2-0.1,0.2-0.1C136.8,82.5,136.6,82.5,136.5,82.5z M137,82.3c0.1,0,0.2-0.1,0.4-0.1
			C137.1,82.2,137.1,82.3,137,82.3z M137.5,82.1c0.1-0.1,0.4-0.1,0.5-0.2C137.7,82,137.6,82.1,137.5,82.1z M138,81.9
			c0.1-0.1,0.2-0.1,0.5-0.2C138.3,81.6,138.2,81.8,138,81.9z M138.6,81.5c0.1-0.1,0.2-0.1,0.5-0.2C139,81.3,138.9,81.4,138.6,81.5z
			 M139.3,81.2c0.2-0.1,0.5-0.2,0.7-0.5C139.8,80.8,139.6,80.9,139.3,81.2z M140.2,80.6c0.2-0.1,0.5-0.2,0.7-0.5
			C140.6,80.3,140.4,80.5,140.2,80.6z M141.2,80c0.2-0.1,0.5-0.2,0.7-0.4C141.6,79.8,141.3,79.9,141.2,80z"/>
		<path class="st2" d="M129.2,50c0.6,1.1,1.2,2.2,1.9,3.3c0.7,1.1,1.4,2.1,2.2,3.1c0.8,0.9,1.5,2,2.5,2.9c0.8,0.9,1.8,1.8,2.6,2.7
			c0.6,0.6,1.1,1.1,1.6,1.5c0.4,0.2,0.6,0.7,1.1,0.8c0.5,0.1,0.8,0,1.3-0.1c0.4-0.1,0.7-0.2,0.9-0.5c0.6-0.4,1.2-0.8,1.2-1.5
			c0-0.4-0.1-0.7-0.2-1.1c-1.2-1.6-2.6-2.5-3.7-3.5c-1.5-1.5-3.2-3.5-4.5-5.5c-2.4-3.8-4-8-4.9-12.4c-0.5-2.1-0.7-4.4-0.7-6.6
			c0-0.9,0.8-4.7-0.1-5.3c-0.4-0.2-1.1-0.6-1.6-0.6c-4.7,0-2,14.1-1.5,16.6C127.4,45.8,128.3,48,129.2,50z"/>
		<path class="st2" d="M134.4,72.3l0.1,0.1l0,0h0.1c0.2,0.1,0.4,0.2,0.6,0.2h0.1c0.5,0,0.9-0.1,1.3-0.4c0.2-0.1,0.6-0.2,0.8-0.5
			c0.4-0.5,0.9-1.1,0.9-1.8c0-1.6-2-3.1-3.1-4.1c-2-1.8-3.9-3.5-5.3-5.8c-3.2-4.6-5.3-9.8-6.9-15.1c-0.8-2.8-1.5-5.8-2-8.7
			c-0.5-2.7-0.8-5.4-0.8-8.1c0-1.4-0.7-2.2-2.2-2.2c-1.4,0-2.1,1.8-2.4,2.8c-0.5,3.1,0,8.4,1.1,12.4c0.8,3.2,1.5,6.5,2.6,9.7
			c0.6,1.8,1.3,3.4,2.2,5.1l0.1,0.1c0.5,0.8,0.9,1.8,1.4,2.6c0.5,0.8,1.1,1.8,1.6,2.6c1.3,2,2.8,3.9,4.6,5.5
			c0.5,0.5,1.1,0.9,1.5,1.5c0.7,0.7,1.3,1.5,2,2.2c0.5,0.6,1.1,1.1,1.5,1.5C134.3,72.2,134.4,72.3,134.4,72.3z"/>
		<path class="st2" d="M128.4,72.8c-0.2-0.1-0.5-0.5-0.7-0.6c-2.7-2.2-4.9-4.2-7.2-6.9c-3.3-3.9-5.4-9-6.8-13.9
			c-0.6-1.8-0.8-3.5-1.1-5.4c-0.1-1.8-0.5-4.1-2.7-4.1c-1.3,0-2.4,1.8-2.4,2.8c0,1.4,0.6,4.5,1.1,6.5c1.1,4.6,2.4,8.6,4.8,12.6
			c2.6,4.1,5.8,7.7,9.5,10.8c1.1,0.9,2.1,1.9,3.2,2.7c1.4,1.1,2.6,1.6,3.9,1.9h0.2c0.5,0,0.7-0.1,1.2-0.4c0.5-0.4,0.6-0.8,0.9-1.2
			c0.2-0.4,0.5-0.7,0.4-1.1C132.2,74.9,129.9,73.8,128.4,72.8z"/>
		<path class="st2" d="M124.9,82c-0.8-0.2-1.6-0.8-2.5-1.1c-3.1-1.2-5.7-3.5-7.9-5.9c-2.6-2.7-4.4-6.2-5.8-9.8
			c-0.4-0.8-0.6-1.6-0.8-2.5c-0.1-0.6-0.2-1.1-0.8-1.3c-0.6-0.1-1.4,0.1-1.8,0.6c-0.6,0.7-0.6,2.2-0.5,3.2c0.4,3.8,2.6,7.5,4.6,10.6
			c2.2,3.3,5.8,6,9.2,7.8c1.1,0.6,2.1,1.2,3.3,1.6c1.1,0.4,2.1,0.8,3.2,1.2l0.4,0.1c0.2,0.1,0.5,0.2,0.7,0.2h0.1h0.1h0.1h0.1h0.2
			h0.1h0.1c0.6-0.2,0.9-0.7,1.2-1.3c0.2-0.5,0.5-1.4,0.1-2c-0.4-0.5-0.8-0.7-1.3-0.8C126.3,82.3,125.6,82.1,124.9,82z"/>
		<path class="st2" d="M77,68.8c-1.4-1.3-2.1-2.5-2.1-3.8c0-1.6,0.9-3.5,3.2-5.8c0.2-0.1,0.7-0.6,0.7-1.3v-0.1
			c0.1-1.4-0.2-2.2-1.3-2.5c-2-0.4-3.8,0.7-5.1,2.1c-1.3,1.4-2.6,3.1-3.3,4.8c-0.4,1.1-0.6,2.6-0.2,3.7c0.6,1.6,2,3.2,3.3,4.4
			c0.2,0.1,2.4,2.2,4.1,4.2l0.1,0.1c3.4,3.8,3.8,4.1,4.6,4.1c0.1,0,0.1,0,0.2,0l0,0l0,0h0.1c0.4-0.1,0.5-0.2,0.6-0.6
			c0,0,0-0.1,0-0.2C82.6,76.8,82.2,74.7,77,68.8L77,68.8z M76.1,55.9c-0.1,0-0.1,0-0.2,0C76,55.9,76,55.9,76.1,55.9
			C76,55.9,76.1,55.9,76.1,55.9z M77.5,74.9c-0.2-0.2-0.4-0.5-0.6-0.7C77.2,74.6,77.3,74.8,77.5,74.9z M79.7,77.4
			c0.1,0.1,0.1,0.1,0.1,0.1S79.9,77.4,79.7,77.4z M77.5,75c0.1,0.2,0.4,0.4,0.5,0.6C77.9,75.4,77.7,75.2,77.5,75z M78.1,75.6
			c0.1,0.1,0.2,0.2,0.4,0.4C78.5,76,78.3,75.8,78.1,75.6z M78.7,76.2c0.1,0.1,0.2,0.2,0.2,0.4C78.8,76.5,78.8,76.3,78.7,76.2z
			 M79,76.7c0.1,0.1,0.1,0.1,0.2,0.2C79.3,76.8,79.2,76.7,79,76.7z M79.4,77c0.1,0.1,0.1,0.1,0.2,0.2C79.6,77.2,79.5,77.2,79.4,77z
			 M80,77.6l0.1,0.1C80.1,77.8,80.1,77.6,80,77.6z M80.2,77.9l0.1,0.1C80.3,77.9,80.3,77.9,80.2,77.9z M81.2,78.3
			C81.3,78.3,81.3,78.3,81.2,78.3C81.3,78.3,81.3,78.3,81.2,78.3C81.3,78.3,81.2,78.3,81.2,78.3z M80.5,78c0.1,0,0.1,0.1,0.1,0.1
			S80.5,78.1,80.5,78z M80.7,78.1l0.1,0.1C80.7,78.2,80.7,78.2,80.7,78.1z M80.8,78.2C80.8,78.2,80.9,78.3,80.8,78.2
			C80.9,78.3,80.8,78.2,80.8,78.2z M80.9,78.3C80.9,78.3,81,78.3,80.9,78.3C81,78.3,80.9,78.3,80.9,78.3z M81,78.3
			C81.2,78.3,81.2,78.3,81,78.3C81.2,78.3,81.2,78.3,81,78.3z"/>
		<path class="st2" d="M98.1,52.7c0.8-1.6,2-3.8,1.2-5.3c-0.2-0.4-0.6-0.5-0.9-0.6c-0.7-0.1-0.9,0.5-1.2,1.1
			c-0.5,1.5-1.2,2.9-1.9,4.2c-0.9,1.6-2.1,3.3-3.4,4.7c-1.2,1.2-5.7,3.4-8.6,4.6c-0.8,0.4-2.5,0.6-2.6,1.8c0,0.5,0.5,1.3,0.7,1.5
			c0.4,0.4,0.8,0.5,1.3,0.5c0.9,0,1.9-0.4,2.7-0.8c0.8-0.4,1.6-0.7,2.5-1.1c1.8-0.8,3.5-1.6,5.1-2.8c1.9-1.4,3.7-4,4.7-6.6
			C97.8,53.5,97.9,53,98.1,52.7z M98.9,48.1c0-0.2-0.1-0.4-0.1-0.5C98.9,47.6,98.9,47.8,98.9,48.1z M81.2,63.2
			c0-0.2,0.5-0.7,2.5-1.1C81.6,62.3,81.2,62.9,81.2,63.2c0,0.4,0.7,1.3,1.2,1.6C81.9,64.4,81,63.5,81.2,63.2z"/>
		<path class="st2" d="M105.4,48.3c-0.7,0.2-0.9,0.9-1.2,1.4c-0.4,0.7-0.7,1.5-1.1,2.2c-2,4-4.8,7.9-8.1,11
			c-0.9,0.8-1.9,1.6-2.9,2.4c-0.9,0.7-2.1,1.2-3.2,1.5c-1.8,0.6-4,0.9-5.5,2.2c-0.2,0.2-0.5,0.5-0.5,0.8c0,0.2,0,0.4,0,0.6
			c0.5,1.8,1.5,2.2,3.2,1.5c3.3-1.4,6.6-2.4,9.5-4.7c0.8-0.6,1.5-1.3,2.2-2c0.7-0.7,1.4-1.5,2-2.4c1.3-1.6,2.5-3.3,3.7-4.9
			c1.1-1.5,2.4-3.2,3.2-4.8c0.5-0.9,0.7-1.9,0.7-2.8c0-0.4-0.1-0.7-0.2-1.1C106.7,48.7,106,48.1,105.4,48.3z M105.3,48.8
			C105.3,48.7,105.3,48.7,105.3,48.8C105.3,48.7,105.2,48.8,105.3,48.8C105.2,48.8,105.3,48.8,105.3,48.8z"/>
		<path class="st2" d="M105.3,62.6c-0.1,0-0.4,0.1-0.5,0.2c-0.6,0.6-0.7,1.4-1.1,2c-0.5,0.8-1.1,1.5-1.6,2.4
			c-1.3,1.5-2.7,2.9-4.4,4.1c-2.5,1.8-5.3,2.9-8.2,3.3c-0.9,0.1-1.9,0.1-2.8,0.2c-0.6,0-1.5,0.2-1.9,0.9c-0.4,0.7,0.2,1.9,0.9,2.2
			c0.5,0.2,1.2,0.1,1.8,0.1c0.8-0.1,1.6-0.2,2.5-0.5c4.4-1.1,5.8-1.4,8.5-2.9c2.5-1.3,4.5-2.9,6-5.2c0.5-0.6,0.8-1.3,1.3-1.9
			c0.7-1.1,1.4-2.4,1.3-3.7c0-0.2-0.1-0.6-0.2-0.8C106.6,62.7,105.9,62.4,105.3,62.6z M85.3,76c0.1-0.1,0.6-0.5,2.1-0.6l0,0
			C85.9,75.4,85.4,75.9,85.3,76z"/>
		<path class="st2" d="M104.4,74.8c-0.7-0.2-1.3,0.6-1.6,1.1c-0.7,0.9-1.6,1.8-2.6,2.5c-1.1,0.8-2.1,1.3-3.3,1.9
			c-1.3,0.6-2.7,0.9-4.1,0.9c-1.5,0-2.7-0.1-4.1-0.5c-0.5-0.1-0.9-0.2-1.5-0.2c-0.4,0-1.1,0.2-1.1,0.6c-0.1,0.7-0.2,1.5,0.7,2
			c0.2,0.1,0.5,0.1,0.8,0.2c2.5,0.2,5.1,0.7,7.5,0.4c0.7-0.1,1.3-0.2,2-0.5c2-0.7,3.9-1.8,5.4-3.2c0.5-0.5,0.9-0.9,1.4-1.4
			c0.6-0.7,1.3-1.6,1.3-2.5c0-0.1,0-0.4-0.1-0.5C104.8,75.3,104.7,75,104.4,74.8z M86.8,81.1h0.1H86.8L86.8,81.1z M86.5,81.9
			L86.5,81.9L86.5,81.9L86.5,81.9z M86.5,81.3c0-0.1,0-0.1,0-0.1S86.5,81.2,86.5,81.3v0.6V81.3z M86.7,82.6L86.7,82.6L86.7,82.6
			L86.7,82.6z M93.5,83.4h-0.1c0.4,0,0.6,0,0.9-0.1C94,83.3,93.8,83.3,93.5,83.4z"/>
	</g>
</g>
</svg>
